<?xml version="1.0" encoding="utf-8"?>
<!-- Generator: Adobe Illustrator 16.0.4, SVG Export Plug-In . SVG Version: 6.00 Build 0)  -->
<!DOCTYPE svg PUBLIC "-//W3C//DTD SVG 1.0//EN" "http://www.w3.org/TR/2001/REC-SVG-20010904/DTD/svg10.dtd">
<svg version="1.0" id="IMG_x5F_0350_xA0_Image_1_" xmlns="http://www.w3.org/2000/svg" xmlns:xlink="http://www.w3.org/1999/xlink"
	 x="0px" y="0px" width="504px" height="360px" viewBox="0 0 504 360" enable-background="new 0 0 504 360" xml:space="preserve">
<g>
	<polygon fill="none" points="345.727,180.498 345.712,180.502 345.727,180.498 	"/>
	<path fill="none" d="M350.223,178.936c0,0,0.001,0,0.002,0c-0.205-0.005-0.356-0.008-0.408-0.01
		c-0.398-0.015-0.775,0.026-1.135,0.109c0.358-0.082,0.733-0.123,1.131-0.108C349.864,178.929,350.016,178.932,350.223,178.936z"/>
	<path fill="none" d="M227.63,199.369c0.223,0.077,0.434-0.073,0.648-0.4C228.063,199.295,227.853,199.445,227.63,199.369z"/>
	<path fill="none" d="M347.473,182.771c-0.316,0.381-1.584,3.088-1.461,3.364c0.447,0.993,0.299,2.147,0.942,3.101
		c0.55,0.812,0.535,1.791,0.571,2.759c0.023,0.685-0.23,1.265-0.742,1.401c-0.18,0.048-0.383,0.062-0.59,0.062
		c0.209,0.001,0.413-0.013,0.594-0.062c0.512-0.14,0.768-0.72,0.742-1.402c-0.036-0.967-0.021-1.945-0.571-2.758
		c-0.644-0.952-0.495-2.106-0.942-3.102c-0.123-0.275,1.145-2.982,1.461-3.363c0.589-0.706,1.308-1.19,2.088-1.576
		c-0.001,0-0.002,0.001-0.002,0.001C348.782,181.581,348.062,182.065,347.473,182.771z"/>
	<path fill="none" d="M332.502,171.377c0.158,1.682,0.305,3.365,0.514,5.041c0.066,0.527,0.279,1.048,0.502,1.537
		c0.104,0.225,0.379,0.503,0.597,0.519c0.827,0.061,1.667-0.007,2.498,0.032c1.178,0.055,1.931,1.265,1.321,2.258
		c-0.061,0.099-0.14,0.189-0.219,0.279c0.08-0.091,0.16-0.182,0.221-0.281c0.607-0.994-0.146-2.203-1.321-2.258
		c-0.831-0.039-1.669,0.029-2.498-0.032c-0.216-0.016-0.493-0.294-0.595-0.519c-0.225-0.489-0.438-1.01-0.502-1.537
		c-0.209-1.676-0.355-3.359-0.516-5.041c-0.038-0.406-0.152-0.705-0.319-0.933c0.001,0.002,0.001,0.004,0.002,0.006
		C332.352,170.676,332.465,170.974,332.502,171.377z"/>
	<path fill="none" d="M334.598,182.773c-0.332,0.556-0.273,1.51-0.062,2.188c0.588,1.855,0.91,3.779,1.485,5.633
		c0.317,1.022,0.905,1.958,1.272,2.971c0.265,0.729,0.263,1.396,0.029,1.949c0.234-0.555,0.236-1.222-0.028-1.951
		c-0.367-1.013-0.955-1.946-1.273-2.971c-0.574-1.854-0.896-3.773-1.484-5.633c-0.213-0.678-0.271-1.632,0.062-2.188
		c0.034-0.058,0.08-0.107,0.134-0.152C334.679,182.664,334.633,182.715,334.598,182.773z"/>
	<path fill="none" d="M343.099,180.167c0.119-0.074,0.37-0.147,0.509-0.214C343.467,180.02,343.215,180.093,343.099,180.167z"/>
	<path fill="none" d="M328.066,179.47c0.332,0.051,0.709-0.296,1.082-0.354c0.342-0.052,0.564-0.156,0.699-0.335
		c-0.135,0.178-0.357,0.281-0.697,0.333c-0.372,0.057-0.75,0.405-1.084,0.354c-0.86-0.133-1.516,0.456-2.297,0.524
		c-0.448,0.039-0.776,0.174-0.987,0.41c0.211-0.236,0.539-0.37,0.985-0.408C326.55,179.926,327.205,179.337,328.066,179.47z"/>
	<path fill="none" d="M326.615,188.471c-0.034,0.074-0.09,0.134-0.137,0.2C326.525,188.604,326.581,188.545,326.615,188.471z"/>
	<path fill="none" d="M368.507,194.549c-1.773,0.461-3.529,0.411-5.185,0.435c1.655-0.023,3.412,0.027,5.186-0.433
		c1.996-0.519,3.606-1.947,3.919-3.821C372.114,192.603,370.505,194.032,368.507,194.549z"/>
	<path fill="none" d="M359.473,186.268c-0.212,1.914,1.195,3.021,2.008,4.424c0,0.001,0.001,0.001,0.002,0.002
		c-0.812-1.4-2.221-2.512-2.008-4.426c0.113-1.013,0.15-2.062-0.238-3.039c0,0.001,0,0.002,0,0.003
		C359.622,184.207,359.584,185.257,359.473,186.268z"/>
	<path fill="none" d="M369.6,181.857c-0.145-0.161-0.294-0.315-0.449-0.461C369.306,181.542,369.455,181.696,369.6,181.857z"/>
	<path fill="none" d="M358.957,194.998c-0.79-0.009-1.405-0.183-1.817-0.552c0.412,0.37,1.028,0.545,1.818,0.554
		c0.874,0.008,1.748,0.004,2.691,0.001C360.706,195.004,359.832,195.007,358.957,194.998z"/>
	<path fill="none" d="M372.479,189.9c-0.027-0.77-0.363-1.521-0.468-2.293c-0.057-0.427-0.173-0.929-0.33-1.46
		c0.157,0.531,0.272,1.032,0.329,1.458C372.114,188.377,372.448,189.129,372.479,189.9z"/>
	<path fill="none" d="M362.349,190.986c-0.004,0-0.009,0-0.013,0c-0.287-0.006-0.708-0.091-0.839-0.28
		c0.131,0.189,0.554,0.274,0.838,0.28C362.34,190.986,362.344,190.986,362.349,190.986z"/>
	<path fill="none" d="M368.643,187.829c-0.122-0.195-0.189-0.405-0.229-0.626c0.039,0.222,0.106,0.433,0.229,0.628
		c0.318,0.509,0.493,1.005,0.425,1.449C369.137,188.835,368.961,188.34,368.643,187.829z"/>
	<path fill="none" d="M366.557,182.218c0.054,0.132,0.141,0.259,0.275,0.377c0.187,0.164,0.333,0.348,0.455,0.545
		c-0.122-0.198-0.27-0.383-0.456-0.547C366.697,182.475,366.61,182.349,366.557,182.218z"/>
	<path fill="none" d="M369.6,181.857c0.734,0.817,1.549,2.576,2.029,4.132C371.148,184.434,370.335,182.675,369.6,181.857z"/>
	<path fill="none" d="M303.232,180.6c0.72,0.254,1.186,1.079,1.34,2.144c0.318,2.207,0.656,4.467,1.855,6.457
		c0.623,1.032,0.578,1.062,1.965,0.803c1.231-0.229,2.012,0.283,2.518,1.662c0.207,0.568-0.239,2.047-0.795,2.544
		c0.559-0.495,1.008-1.979,0.797-2.547c-0.506-1.379-1.284-1.893-2.516-1.662c-1.389,0.259-1.342,0.23-1.965-0.803
		c-1.199-1.99-1.537-4.25-1.857-6.457c-0.154-1.062-0.62-1.889-1.34-2.143c-0.811-0.285-1.926-0.451-2.692,0.578
		c-0.771,1.034-1.641,1.994-2.491,2.971c0.851-0.975,1.719-1.935,2.489-2.968C301.309,180.15,302.424,180.316,303.232,180.6z"/>
	<path fill="none" d="M294.632,180.153c0.434-0.343,0.882-0.186,1.233,0.317c0.004,0.003,0.006,0.007,0.01,0.01
		c-0.353-0.512-0.806-0.676-1.242-0.33c-0.216,0.171-0.493,0.539-0.579,0.773C294.141,180.688,294.416,180.323,294.632,180.153z"/>
	<path fill="none" d="M316.77,190.32c0.812-0.347,1.622-0.699,2.432-1.055C318.392,189.621,317.582,189.974,316.77,190.32z"/>
	<path fill="none" d="M298.852,189.118c0.051-0.094,0.106-0.186,0.164-0.271c0.417-0.614,0.872-1.203,1.331-1.789
		c-0.459,0.587-0.915,1.177-1.334,1.793C298.956,188.936,298.902,189.025,298.852,189.118z"/>
	<path fill="none" d="M299.436,190.704c1.225,1.119,1.271,2.01,0.607,3.612c-0.087,0.21-0.176,0.406-0.273,0.584
		c0.099-0.179,0.188-0.375,0.275-0.586c0.663-1.604,0.615-2.494-0.607-3.613c-0.266-0.242-0.883-0.383-0.885-0.572
		c-0.001-0.323,0.117-0.673,0.283-0.984c-0.167,0.312-0.286,0.664-0.285,0.987C298.552,190.32,299.17,190.462,299.436,190.704z"/>
	<path fill="none" d="M289.15,186.592c0.488-0.392,0.548-1.07,0.186-2.006C289.696,185.521,289.637,186.2,289.15,186.592z"/>
	<path fill="none" d="M289.027,190.477c-1.638,1.059-3.371,1.856-5.22,2.258c1.85-0.4,3.583-1.198,5.22-2.256
		c1.359-0.876,2.532-1.929,2.899-3.44C291.56,188.549,290.387,189.601,289.027,190.477z"/>
	<path fill="none" d="M284.915,187.816c-1.813,0.453-3.552,1.289-5.485,1.182C281.365,189.105,283.102,188.27,284.915,187.816z"/>
	<path fill="none" d="M296.48,181.253c0.207,1.006,0.35,2.024,0.523,3.036c0.04,0.227,0.132,0.443,0.199,0.665
		c0.178-0.146,0.379-0.271,0.525-0.438c0,0,0-0.001,0.001-0.001c-0.147,0.169-0.35,0.294-0.525,0.437
		c-0.067-0.223-0.159-0.438-0.199-0.665c-0.176-1.013-0.315-2.03-0.522-3.036c-0.03-0.145-0.192-0.254-0.327-0.379
		c0.001,0.002,0.001,0.005,0.002,0.007C296.292,181.001,296.452,181.11,296.48,181.253z"/>
	<path fill="none" d="M313.917,195.473c-1.017-0.13-1.327-0.709-1.438-1.742c-0.064-0.606,0.019-1.062,0.26-1.419
		c-0.242,0.358-0.325,0.813-0.26,1.421c0.109,1.033,0.422,1.611,1.438,1.742c0.521,0.064,1.091-0.129,1.622-0.27
		c2.368-0.627,4.457-1.898,6.607-3.002c-2.149,1.101-4.237,2.375-6.606,3.001C315.008,195.344,314.438,195.538,313.917,195.473z"/>
	<path fill="none" d="M294.431,185.37c-0.01-0.202-0.003-0.411,0.009-0.622C294.428,184.959,294.421,185.168,294.431,185.37z"/>
	<path fill="none" d="M321.484,187.443c-0.949-0.495-1.868-0.397-2.877-0.678C319.616,187.046,320.535,186.95,321.484,187.443z"/>
	<path fill="none" d="M321.854,187.706c0.137,0.177-0.083,0.284-0.285,0.463c-0.084,0.073-0.184,0.134-0.288,0.187
		c0.105-0.053,0.205-0.113,0.291-0.188C321.773,187.989,321.992,187.884,321.854,187.706z"/>
	<path fill="none" d="M320.711,183.926c-1.733-0.125-5.063,0.115-6.551,0.528C315.646,184.043,318.977,183.803,320.711,183.926z"/>
	<path fill="none" d="M308.021,186.273c0.02,1.287,1.199,1.67,2.103,2.025c0.672,0.266,1.57,0.137,2.325-0.025
		c0.757-0.163,1.507-0.351,2.259-0.535c-0.751,0.185-1.501,0.371-2.257,0.533c-0.754,0.162-1.653,0.291-2.325,0.026
		c-0.901-0.356-2.083-0.739-2.103-2.026c-0.014-0.876-0.089-1.688,0.488-2.58C307.932,184.584,308.009,185.396,308.021,186.273z"/>
	<path fill="none" d="M313.773,183.282c0.247-0.083,0.506-0.154,0.715-0.292c0.119-0.079,0.234-0.163,0.353-0.242
		c-0.118,0.079-0.233,0.163-0.352,0.241C314.28,183.128,314.021,183.199,313.773,183.282z"/>
	<path fill="none" d="M398.099,194.35c-1.146-1.554-2.191-4.904-2.663-6.896c-0.361-1.531-0.367-3.026-0.457-4.549
		c-0.024-0.439-0.416-0.854-0.453-1.296c-0.049-0.596-0.352-0.623-0.807-0.616c-1.33,0.017-2.666,0.062-3.99-0.027
		c-0.215-0.014-0.47-0.112-0.69-0.251c0,0,0,0-0.001,0c0.221,0.139,0.477,0.238,0.691,0.252c1.323,0.09,2.659,0.044,3.989,0.027
		c0.455-0.006,0.759,0.021,0.808,0.617c0.037,0.439,0.428,0.854,0.453,1.295c0.09,1.521,0.095,3.018,0.457,4.549
		C395.906,189.445,396.951,192.797,398.099,194.35c0.497,0.674,2.237,0.982,2.858,0.4c0,0,0-0.001,0.001-0.001
		C400.337,195.331,398.597,195.021,398.099,194.35z"/>
	<path fill="none" d="M420.416,181.796c0.554-0.396,1.17-0.632,1.917-0.815C421.585,181.164,420.97,181.399,420.416,181.796z"/>
	<path fill="none" d="M430.736,180.509c2.489,0.13,4.35,1.39,5.76,3.374c0.709,0.999,0.436,2.17,0.516,3.283
		c0.068,0.938-0.74,1.223-1.199,1.75c-0.677,0.776-1.52,1.341-2.397,1.846c0.878-0.504,1.723-1.069,2.401-1.848
		c0.459-0.525,1.268-0.812,1.197-1.75c-0.08-1.113,0.193-2.284-0.516-3.283c-1.41-1.982-3.27-3.244-5.76-3.374
		c-0.998-0.05-1.998-0.007-2.998-0.009c-1.313,0.061-2.611,0.054-3.927,0.217c1.317-0.163,2.615-0.156,3.928-0.216
		C428.74,180.5,429.74,180.457,430.736,180.509z"/>
	<path fill="none" d="M425.062,194.899c-0.024,0.003-0.048,0.009-0.072,0.012C425.014,194.908,425.037,194.902,425.062,194.899z"/>
	<path fill="none" d="M429.826,192.715c-0.177,0.105-0.354,0.217-0.527,0.332C429.473,192.932,429.648,192.82,429.826,192.715z"/>
	<path fill="none" d="M423.613,195.016c0.371-0.007,0.738-0.034,1.101-0.075C424.351,194.981,423.984,195.009,423.613,195.016
		L423.613,195.016z"/>
	<path fill="none" d="M428.305,183.501C428.305,183.5,428.304,183.5,428.305,183.501c-0.484,0.485-1.033,0.548-1.572,0.521
		C427.271,184.049,427.82,183.986,428.305,183.501z"/>
	<path fill="none" d="M425.219,184c0.111-0.031,0.228-0.047,0.349-0.053C425.446,183.953,425.33,183.969,425.219,184z"/>
	<path fill="none" d="M428.776,183.781c0.648,0.273,1.384,0.166,2.073,0.27C430.161,183.947,429.425,184.053,428.776,183.781z"/>
	<path fill="none" d="M445.724,182.521c0.83-0.819,1.604-1.703,2.487-2.46c1.518-1.303,3.036-1.349,4.256-0.501
		c-1.221-0.85-2.739-0.805-4.258,0.5c-0.883,0.758-1.657,1.641-2.487,2.461c-0.157,0.156-0.35,0.28-0.525,0.423
		c0,0.001,0.001,0.001,0.001,0.002C445.375,182.805,445.566,182.68,445.724,182.521z"/>
	<path fill="none" d="M463.079,192.863c-0.377-0.309-0.747-0.639-1.06-1.006C462.332,192.225,462.701,192.555,463.079,192.863z"/>
	<path fill="none" d="M451,183.749c-0.091-0.094-0.18-0.162-0.269-0.205c0.088,0.043,0.177,0.11,0.267,0.204
		c0.289,0.299,0.644,0.552,0.873,0.891c2.011,2.953,3.955,5.95,6.013,8.867c-2.057-2.918-4.001-5.913-6.011-8.865
		C451.645,184.301,451.289,184.048,451,183.749z"/>
	<path fill="none" d="M377.445,196.979c1.211,0.361,2.494,0.471,3.744,0.695c-1.25-0.225-2.533-0.334-3.74-0.699
		c-2.211-0.668-3.865-3.094-3.957-5.414c-0.156-3.928,1.107-7.285,3.812-10.146c0.198-0.21,0.412-0.389,0.635-0.548
		c-0.225,0.16-0.439,0.34-0.639,0.551c-2.703,2.859-3.969,6.218-3.812,10.146C373.581,193.883,375.234,196.311,377.445,196.979z"/>
	<path fill="none" d="M459.029,194.878c-0.021-0.019-0.039-0.041-0.059-0.06C458.99,194.837,459.009,194.859,459.029,194.878z"/>
	<path fill="none" d="M225.899,195.848c1.409-1.23,2.686-2.671,4.254-3.644C228.585,193.177,227.308,194.615,225.899,195.848z"/>
	<path fill="none" d="M444.568,194.775c0.147,0.169,0.467,0.251,0.835,0.269c-0.367-0.018-0.686-0.101-0.833-0.269
		c-0.615-0.702-1.377-1.186-1.656-2.317c-0.438-1.776-1.014-3.492-0.921-5.356c0.048-1,0.007-2,0.007-3c0,1,0.041,2-0.009,2.998
		c-0.093,1.865,0.481,3.58,0.921,5.357C443.191,193.591,443.953,194.072,444.568,194.775z"/>
	<path fill="none" d="M225.899,195.848c-0.437,0.383-0.565,0.715-0.106,1.221C225.335,196.562,225.462,196.23,225.899,195.848z"/>
	<path fill="none" d="M442.543,178.52c0.368,0.058,0.86-0.228,1.189-0.004c-0.329-0.226-0.823,0.061-1.191,0.003
		c-0.648-0.102-0.539,0.442-0.541,0.832c-0.003,1.583,0,3.167,0,4.75c0-1.584-0.003-3.168,0.002-4.75
		C442.004,178.962,441.895,178.418,442.543,178.52z"/>
	<path fill="none" d="M458.537,194.375c-0.042-0.048-0.08-0.104-0.121-0.153C458.457,194.271,458.495,194.327,458.537,194.375z"/>
	<path fill="none" d="M400.384,179.491c-0.223,0.077-0.521-0.059-0.739,0.025c-0.571,0.22-1.136,0.48-1.676,0.773
		c-0.245,0.132-0.361,0.265-0.399,0.397c0.038-0.132,0.154-0.265,0.398-0.396c0.54-0.293,1.104-0.553,1.675-0.773
		C399.862,179.434,400.162,179.569,400.384,179.491c1.099-0.378,2.3-0.322,3.354-0.947c0.133-0.079,0.251-0.151,0.361-0.222
		c-0.11,0.07-0.228,0.143-0.36,0.221C402.684,179.168,401.482,179.111,400.384,179.491z"/>
	<path fill="none" d="M274.007,190.007c0.009,0.146,0.081,0.312,0.179,0.42c1.252,1.405,2.58,2.677,4.668,2.578
		c0.249-0.013,0.498-0.014,0.748-0.012c-0.25-0.002-0.499-0.001-0.748,0.011c-2.088,0.1-3.416-1.173-4.668-2.578
		C274.088,190.318,274.016,190.15,274.007,190.007c-0.029-0.484-0.05-0.97-0.045-1.452
		C273.957,189.037,273.978,189.522,274.007,190.007z"/>
	<path fill="none" d="M400.898,191.299c0.085,0.12,0.164,0.243,0.249,0.362C401.062,191.542,400.983,191.418,400.898,191.299z"/>
	<path fill="none" d="M389.411,178.325c0.021-0.019,0.039-0.042,0.062-0.06C389.45,178.283,389.433,178.307,389.411,178.325z"/>
	<path fill="none" d="M393.694,173.903c0.056,0.565,0.113,1.131,0.167,1.697C393.808,175.035,393.75,174.469,393.694,173.903
		C393.694,173.903,393.694,173.903,393.694,173.903z"/>
	<path fill="none" d="M381.035,183.037c-0.764,0.412-1.627,1.002-1.982,1.736c-0.001,0.001-0.001,0.003-0.002,0.004
		c0.355-0.735,1.221-1.325,1.982-1.737c0.396-0.214,0.696-0.063,0.965,0.183c-0.002-0.003-0.003-0.005-0.004-0.007
		C381.726,182.973,381.427,182.826,381.035,183.037z"/>
	<path fill="none" d="M382.7,197.559c1.465-0.228,2.808-0.775,4.159-1.508c0.318-0.173,0.584-0.372,0.825-0.583
		c-0.241,0.21-0.506,0.409-0.824,0.581C385.508,196.783,384.165,197.331,382.7,197.559z"/>
	<path fill="none" d="M420.693,187.545c-0.621,1.078,0.188,1.824,0.688,2.532c0.562,0.792,1.373,0.509,2.182,0.149
		c-0.807,0.357-1.617,0.643-2.18-0.149c-0.499-0.708-1.311-1.454-0.688-2.532c0.148-0.262,0.246-0.57,0.301-0.869
		c0.445-2.449,0.688-2.67,3.039-2.676c-0.001,0-0.001,0-0.002,0c-2.353,0.006-2.594,0.227-3.039,2.676
		C420.939,186.975,420.844,187.283,420.693,187.545z"/>
	<path fill="none" d="M393.861,175.6c0.146,0.927,0.103,1.31-0.432,1.604C393.965,176.91,394.01,176.527,393.861,175.6z"/>
	<path fill="none" d="M410.328,177.378c-0.174-0.094-0.342-0.22-0.511-0.292C409.986,177.158,410.154,177.284,410.328,177.378z"/>
	<path fill="none" d="M410.479,182.257c0.385,1.011,0.861,2.028,0.984,3.08c0.285,2.431,0.752,4.812,1.729,7.039
		c0.327,0.754,0.503,1.483,0.088,2.017c-0.521,0.664-1.349,1.094-2.062,1.597c-0.053,0.037-0.151,0.055-0.247,0.052
		c0.096,0.004,0.195-0.014,0.249-0.051c0.715-0.504,1.543-0.932,2.062-1.598c0.415-0.531,0.241-1.262-0.088-2.016
		c-0.978-2.229-1.442-4.609-1.729-7.039c-0.123-1.052-0.602-2.07-0.982-3.08c-0.062-0.162-0.19-0.318-0.34-0.45
		c0,0.001,0.002,0.002,0.002,0.004C410.293,181.942,410.419,182.098,410.479,182.257z"/>
	<path fill="none" d="M408.794,175.936c0.285,0.24,0.069,0.882,0.498,1.051C408.867,176.816,409.082,176.175,408.794,175.936z"/>
	<path fill="none" d="M232.87,192.87c-1.699,1.907-3.185,3.972-4.591,6.099C229.685,196.842,231.171,194.78,232.87,192.87z"/>
	<path fill="none" d="M408.492,186.435c0.005-0.066,0.019-0.13,0.027-0.196C408.511,186.305,408.497,186.368,408.492,186.435z"/>
	<path fill="none" d="M410.751,174.585C410.751,174.584,410.75,174.584,410.751,174.585c-0.227-0.147-0.841,0.205-1.218,0.431
		c-0.354,0.21-0.623,0.553-0.93,0.837c0,0,0,0,0.001,0c0.308-0.285,0.577-0.626,0.931-0.836
		C409.912,174.791,410.525,174.44,410.751,174.585z"/>
	<path fill="none" d="M345.644,180.518c-0.264,0.011-0.929-0.219-1.286-0.401c-0.209-0.102-0.463-0.104-0.75-0.163
		c0.287,0.059,0.541,0.061,0.746,0.164C344.712,180.301,345.384,180.531,345.644,180.518z"/>
	<path fill="none" d="M81.478,180.498c1.122-2.111,2.613-3.742,4.887-4.628c1.331-0.519,4.424-0.512,5.624,0.132
		c0.76,0.408,1.079,0.685,1.087,1.245c-0.007-0.562-0.325-0.839-1.087-1.249c-1.2-0.644-4.292-0.651-5.624-0.132
		c-2.274,0.886-3.765,2.518-4.887,4.628c-0.646,1.217-0.635,2.627-1.124,3.773c-0.252,0.592-0.349,1.202-0.318,1.803
		c-0.03-0.6,0.067-1.208,0.318-1.799C80.843,183.125,80.832,181.713,81.478,180.498z"/>
	<path fill="none" d="M89.962,179.742c-1.478,1.708-2.991,3.383-4.521,5.045c-0.129,0.141-0.435,0.233-0.612,0.187
		c0.178,0.049,0.484-0.045,0.613-0.187C86.971,183.125,88.484,181.449,89.962,179.742c0.077-0.087-0.149-0.562-0.345-0.718
		c-0.057-0.045-0.142-0.055-0.234-0.056c0.092,0,0.177,0.011,0.233,0.056C89.812,179.18,90.038,179.654,89.962,179.742z"/>
	<path fill="none" d="M88.895,179c0.124,0,0.266-0.024,0.396-0.033C89.161,178.976,89.018,179,88.895,179z"/>
	<path fill="none" d="M145.872,179.574c-0.001-0.76,0.301-1.459,0.509-2.166C146.174,178.114,145.871,178.813,145.872,179.574z"/>
	<path fill="none" d="M96.857,184.611c-0.548-0.889-1.451-0.598-2.236-0.588c-0.273,0.002-0.538,0.283-0.815,0.418
		c-0.967,0.475-1.911,1.014-2.916,1.385c-0.705,0.261-1.309,0.978-2.192,0.619c0,0.002-0.001,0.003-0.001,0.005
		c0.884,0.356,1.488-0.359,2.193-0.62c1.005-0.371,1.949-0.91,2.916-1.385c0.277-0.135,0.542-0.416,0.815-0.418
		c0.786-0.01,1.688-0.301,2.236,0.589c0.094,0.153,0.147,0.382,0.162,0.645C97.004,184.996,96.952,184.766,96.857,184.611z"/>
	<path fill="none" d="M134.967,180.001c-0.643-0.036-1.205,0.04-1.715,0.483C133.762,180.043,134.324,179.967,134.967,180.001
		c0.332,0.019,0.57-0.002,0.317,0.511c-0.23,0.469-0.325,1.081-0.259,1.604c0.075,0.596-0.028,1.038-0.282,1.37
		c0.254-0.332,0.358-0.774,0.283-1.371c-0.066-0.521,0.028-1.135,0.259-1.604C135.538,179.998,135.3,180.019,134.967,180.001z"/>
	<path fill="none" d="M53.536,185.512c-0.011-0.426,0.436-0.856,0.441-1.292C53.971,184.655,53.524,185.086,53.536,185.512z"/>
	<path fill="none" d="M54.987,188.518c1.054,0.477,1.977,0.59,3.164,0.162C56.963,189.107,56.041,188.992,54.987,188.518z"/>
	<path fill="none" d="M146.535,176.757c-0.022,0.146-0.052,0.291-0.089,0.436C146.482,177.048,146.512,176.903,146.535,176.757
		L146.535,176.757z"/>
	<path fill="none" d="M63.249,186.499c4.913-2.12,9.139-5.19,12.683-9.196C72.389,181.307,68.162,184.379,63.249,186.499z"/>
	<path fill="none" d="M110.526,182.043c-0.229-0.284-1.162-0.204-1.679-0.02c-2.562,0.912-5.196,0.285-7.787,0.467
		c-0.58,0.041-1.167,0.047-1.746-0.002c-1.43-0.118-2.234-1.026-2.278-2.24c0.042,1.216,0.848,2.126,2.279,2.245
		c0.579,0.049,1.167,0.043,1.746,0.002c2.591-0.181,5.226,0.444,7.787-0.468c0.517-0.186,1.449-0.264,1.679,0.021
		c0.555,0.687,1.879-0.017,1.903,0.969c0-0.001,0-0.001,0-0.001C112.412,182.023,111.081,182.732,110.526,182.043z"/>
	<path fill="none" d="M146.508,175.749c-0.028-0.118-0.038-0.231-0.028-0.332c-0.011,0.102-0.001,0.216,0.027,0.336
		c0.009,0.037,0.007,0.071,0.014,0.107c0-0.001,0-0.002,0.001-0.003C146.515,175.821,146.517,175.786,146.508,175.749z"/>
	<path fill="none" d="M149.987,178.104c-0.024,0.171-0.03,0.351-0.012,0.542c0,0,0.001-0.001,0.001-0.001
		C149.958,178.453,149.963,178.274,149.987,178.104z"/>
	<path fill="none" d="M77.307,174.384c-0.031-0.76-0.403-1.473-1.093-1.863C76.904,172.912,77.275,173.625,77.307,174.384z"/>
	<path fill="none" d="M102.087,178.677c-0.21,0.158-0.311,0.46-0.462,0.695c0.001,0,0.002,0,0.003,0.001
		c0.149-0.234,0.25-0.534,0.459-0.691c1.466-1.108,3.071-1.976,4.785-2.635c-0.005,0-0.01,0-0.015,0.001
		C105.149,176.707,103.549,177.572,102.087,178.677z"/>
	<path fill="none" d="M124.499,189.928c-0.015,0.334-0.108,0.7-0.243,1.03c0.136-0.331,0.229-0.698,0.245-1.033
		c0.005-0.161-0.001-0.327-0.001-1.053C124.5,189.598,124.506,189.764,124.499,189.928z"/>
	<path fill="none" d="M138.5,190.708c0,0.394,0.008,0.737,0.01,1.054C138.508,191.445,138.5,191.103,138.5,190.708z"/>
	<path fill="none" d="M122.942,185.341c0.166,0.675,0.424,1.14,0.777,1.687c0.451,0.692,0.66,1.543,0.781,1.845
		c-0.121-0.302-0.33-1.152-0.779-1.847c-0.354-0.547-0.611-1.012-0.777-1.688c-0.601-2.439-1.364-4.839-2.083-7.25
		c0.001,0.009,0.003,0.019,0.005,0.028C121.583,180.519,122.343,182.909,122.942,185.341z"/>
	<path fill="none" d="M142.967,191.289c0.007-0.416,0.027-0.834,0.036-1.249v-0.001
		C142.994,190.454,142.973,190.872,142.967,191.289z"/>
	<path fill="none" d="M139.774,198.884c-2.539,1.829-4.459,2.177-7.834,1.114c-1.73-0.543-2.66-1.758-2.529-3.353
		c-0.133,1.595,0.797,2.812,2.529,3.356c3.375,1.062,5.296,0.715,7.834-1.113c1.796-1.295,3.176-3.013,3.277-5.329
		C142.95,195.875,141.569,197.592,139.774,198.884z"/>
	<path fill="none" d="M139,181.626c-0.03-0.167,0.024-0.354,0.185-0.577c0.287-0.398,0.417-0.829,0.419-1.258
		c-0.003,0.428-0.134,0.858-0.419,1.254C139.023,181.269,138.968,181.458,139,181.626z"/>
	<path fill="none" d="M133.05,184.365c0.171-0.057,0.34-0.123,0.514-0.174c0.052-0.016,0.097-0.034,0.146-0.051
		c-0.05,0.017-0.095,0.035-0.147,0.051C133.39,184.241,133.222,184.309,133.05,184.365z"/>
	<path fill="none" d="M120.437,169.942c0.009,0.04,0.022,0.079,0.029,0.118C120.459,170.021,120.446,169.982,120.437,169.942z"/>
	<path fill="none" d="M116.438,182.373c0.31,1.296-0.575,2.665-1.48,3.277c-1.9,1.287-3.665,2.841-6.063,3.41
		c-1.552,0.374-3.047,0.93-4.504,0.96c1.457-0.03,2.953-0.585,4.505-0.954c2.398-0.57,4.163-2.123,6.063-3.41
		c0.906-0.613,1.792-1.984,1.48-3.281C116.438,182.374,116.438,182.374,116.438,182.373z"/>
	<path fill="none" d="M102.058,189.997c-0.781-0.03-1.348-0.411-1.636-0.966c0.288,0.556,0.855,0.939,1.637,0.97
		c0.497,0.015,0.997-0.001,1.709-0.001C103.056,190,102.556,190.016,102.058,189.997z"/>
	<path fill="none" d="M131.012,183.766c0.278-0.812,0.828-1.635,1.484-2.448C131.84,182.13,131.289,182.954,131.012,183.766z"/>
	<path fill="none" d="M118.1,168.536c0.726,0.132,1.419,0.545,2.071,0.927c0.102,0.06,0.181,0.196,0.234,0.353
		c-0.054-0.158-0.133-0.294-0.234-0.354C119.519,169.08,118.826,168.667,118.1,168.536c-1.016-0.186-2.136,1.006-2.1,2.046
		c0,0,0,0,0,0C115.964,169.542,117.083,168.351,118.1,168.536z"/>
	<path fill="none" d="M120.483,170.293c0.001-0.043-0.006-0.092-0.011-0.14C120.477,170.201,120.484,170.25,120.483,170.293
		C120.483,170.293,120.483,170.293,120.483,170.293z"/>
	<path fill="none" d="M269.688,173c-0.001,0-0.001,0-0.002,0c0.05,0.064,0.102,0.102,0.151,0.154
		c-0.001-0.002-0.003-0.004-0.004-0.006C269.784,173.097,269.735,173.062,269.688,173z"/>
	<path fill="none" d="M76.991,175.744c-0.296,0.551-0.646,1.091-1.059,1.559C76.345,176.836,76.695,176.296,76.991,175.744z"/>
	<path fill="none" d="M233.009,171.179c-2.917-1.819-5.742-3.787-8.625-5.663c-0.042-0.028-0.064-0.054-0.1-0.081
		c0.036,0.027,0.058,0.054,0.101,0.082C227.268,167.393,230.093,169.361,233.009,171.179c0.394,0.247,0.963,1.15,1.698,0.387
		C233.972,172.328,233.403,171.426,233.009,171.179z"/>
	<path fill="none" d="M254.691,192.875c0.857,0.73,2.008,1.467,3.062,1.527c0.901,0.053,1.735,0.315,2.591,0.488
		c-0.854-0.174-1.688-0.436-2.587-0.488c-1.057-0.061-2.205-0.797-3.062-1.525c-1.586-1.346-2.753-2.979-3.267-5.134
		c-0.285-1.203-0.666-2.438-0.366-3.542c0.584-2.158,0.742-4.434,1.905-6.452c1.652-2.866,3.553-5.401,6.309-7.382
		c1.754-1.261,3.506-2.26,5.52-3.018c0.879-0.334,1.688-0.188,2.486-0.277c-0.798,0.088-1.607-0.058-2.49,0.275
		c-2.014,0.758-3.766,1.756-5.52,3.018c-2.756,1.981-4.654,4.516-6.309,7.382c-1.163,2.019-1.321,4.294-1.905,6.452
		c-0.3,1.105,0.081,2.339,0.366,3.542C251.936,189.896,253.105,191.529,254.691,192.875z"/>
	<path fill="none" d="M243.536,177.295c0.765,0.577,1.208,1.494,2.254,1.81c0.293,0.089,0.599,0.472,0.831,0.895
		c0.001,0,0.003,0,0.004,0c-0.233-0.425-0.54-0.812-0.835-0.901c-1.046-0.316-1.489-1.233-2.254-1.81
		c-0.17-0.129-0.283-0.275-0.37-0.433c0,0.001-0.001,0.002-0.002,0.004C243.251,177.019,243.364,177.166,243.536,177.295z"/>
	<path fill="none" d="M234.889,170.678c0-0.001-0.001-0.001-0.001-0.002c-0.792-0.768-1.719-1.446-2.246-2.359
		c-0.494-0.856-1.147-1.571-1.835-2.253c0.688,0.682,1.34,1.396,1.834,2.252C233.17,169.231,234.097,169.91,234.889,170.678z"/>
	<path fill="none" d="M234.707,171.566c0.229,0.087,0.468,0.178,0.707,0.27c-0.024-0.112-0.034-0.238-0.046-0.361
		c0,0-0.001-0.001-0.001-0.001c0.013,0.123,0.022,0.249,0.046,0.361C235.175,171.745,234.936,171.653,234.707,171.566z"/>
	<polygon fill="none" points="32.998,207.403 33,207.406 32.998,207.403 	"/>
	<polygon fill="none" points="32.667,207.475 32.667,207.475 32.667,207.475 	"/>
	<path fill="none" d="M269.219,166.951c0.689,0.075,1.322,0.29,1.907,0.633C270.542,167.241,269.908,167.026,269.219,166.951z"/>
	<path fill="none" d="M229.422,164.711c-0.679-0.686-1.311-1.412-1.77-2.287c-0.035-0.065-0.073-0.124-0.115-0.177
		c0.041,0.053,0.08,0.111,0.114,0.176C228.111,163.299,228.743,164.025,229.422,164.711z"/>
	<path fill="none" d="M268.855,187.879c0.729-0.73,1.693-0.527,2.312-0.287c-0.001-0.001-0.002-0.002-0.003-0.002
		c-0.619-0.242-1.586-0.445-2.313,0.287c-2.037,2.051-4.523,2.768-7.402,2.666c-0.786-0.027-1.5-0.164-2.156-0.401
		c0.657,0.238,1.373,0.375,2.16,0.403C264.332,190.648,266.818,189.932,268.855,187.879z"/>
	<path fill="none" d="M268.995,172.042c-0.049-0.485-0.206-0.788-0.486-0.956c0.277,0.168,0.435,0.47,0.482,0.954
		c0.034,0.356-0.06,0.779,0.243,0.921C268.937,172.817,269.029,172.396,268.995,172.042z"/>
	<path fill="none" d="M136.567,186.232c-1.217,1.893-3.341,1.699-5.092,2.174c-0.897,0.242-2.069-0.461-3.099-0.791
		c-1.169-0.376-0.575-1.802-1.375-2.414c0,0.001,0,0.002-0.001,0.003c0.802,0.612,0.206,2.039,1.376,2.415
		c1.03,0.331,2.202,1.033,3.099,0.791c1.75-0.475,3.875-0.281,5.092-2.174c0.319-0.496,0.677-0.32,0.971,0.342
		c0.543,1.224,0.999,2.434,0.994,3.622c0.005-1.188-0.45-2.399-0.994-3.626C137.244,185.912,136.886,185.736,136.567,186.232z"/>
	<path fill="none" d="M55.428,165.521c1.07-0.279,2.251-0.325,3.259-0.613c2.041-0.582,4.052-0.415,6.064-0.38
		c5.139,0.091,9.766,1.915,14.071,4.589c0.826,0.513,1.483,1.341,2.122,2.105c0.064,0.077,0.101,0.168,0.154,0.251
		c-0.053-0.083-0.09-0.175-0.155-0.253c-0.638-0.764-1.295-1.592-2.122-2.105c-4.306-2.674-8.933-4.498-14.071-4.589
		c-2.012-0.035-4.023-0.202-6.064,0.38c-1.008,0.288-2.189,0.334-3.259,0.613c-0.888,0.231-1.728,0.646-2.589,0.979
		c0,0,0.001,0.001,0.001,0.002C53.7,166.167,54.54,165.752,55.428,165.521z"/>
	<path fill="none" d="M51.944,192.419c0.12,0.036,0.231,0.075,0.361,0.108c0.045,0.012,0.087,0.037,0.132,0.053
		c-0.044-0.016-0.086-0.041-0.131-0.053C52.176,192.494,52.064,192.455,51.944,192.419z"/>
	<path fill="none" d="M49.488,177.05c-0.123-2.681-0.019-5.426-0.594-8.014c-0.384-1.727-0.261-3.381-0.373-5.064
		c-0.063-0.95,0.381-1.384,1.194-1.472c1.293-0.139,1.982,0.062,2.194,0.801c-0.211-0.741-0.9-0.942-2.195-0.803
		c-0.813,0.087-1.258,0.521-1.194,1.472c0.112,1.683-0.011,3.337,0.373,5.064c0.576,2.588,0.471,5.333,0.594,8.014
		c0.069,1.498,0.013,2.999,0.013,4.499C49.5,180.047,49.556,178.546,49.488,177.05z"/>
	<path fill="none" d="M167.454,189.234c-0.899-0.775-2.044-0.721-3.178-0.76c-1.598-0.057-3.188,0.258-4.801-0.43
		c-1.917-0.812-3.09-1.545-4.04-3.372c-0.567-1.091-1.461-2.034-1.466-3.396c-0.001-0.238-0.424-0.478-0.652-0.715
		c-0.105,0.244-0.196,0.498-0.319,0.732c-0.534,1.027-1.013,2.09-1.644,3.053c-0.159,0.243-0.284,0.433-0.311,0.622
		c0.028-0.188,0.152-0.376,0.31-0.616c0.631-0.963,1.11-2.024,1.644-3.054c0.123-0.235,0.214-0.487,0.319-0.731
		c0.228,0.236,0.651,0.476,0.652,0.715c0.005,1.357,0.899,2.304,1.466,3.395c0.95,1.827,2.123,2.559,4.04,3.372
		c1.613,0.687,3.203,0.373,4.801,0.429c1.134,0.039,2.279-0.017,3.178,0.76c0.717,0.619,1.234,0.088,1.341-0.346
		c0-0.001,0-0.002,0-0.002C168.687,189.321,168.169,189.851,167.454,189.234z"/>
	<path fill="none" d="M53.437,193.238c0.079,0.065,0.158,0.132,0.236,0.193c0.379,0.297,0.758,0.544,1.147,0.731
		c-0.389-0.188-0.768-0.435-1.146-0.731C53.595,193.37,53.516,193.304,53.437,193.238z"/>
	<path fill="none" d="M178.216,182.525c-0.684,0.118-1.11-0.159-1.481-0.526c0,0,0,0-0.001,0
		C177.105,182.366,177.532,182.645,178.216,182.525z"/>
	<path fill="none" d="M77.307,174.384c0.019,0.456-0.085,0.929-0.315,1.36C77.222,175.313,77.325,174.84,77.307,174.384z"/>
	<path fill="none" d="M151.565,189.684c-0.779,0.596-1.623,0.409-2.563-0.42c-1.434-1.264-1.827-3.072-2.449-4.725
		c-0.301-0.801,0.029-1.818-0.076-2.721c-0.091-0.758-0.396-1.496-0.605-2.244c0.209,0.749,0.514,1.486,0.604,2.249
		c0.105,0.901-0.225,1.92,0.076,2.721c0.622,1.651,1.015,3.461,2.449,4.726c0.94,0.828,1.784,1.016,2.563,0.418
		c0.518-0.396,0.822-0.773,0.923-1.205C152.385,188.912,152.081,189.289,151.565,189.684z"/>
	<path fill="none" d="M49.5,181.547c0,2.581-0.025,5.163,0.008,7.744c0.012,0.943,0.226,1.63,0.68,2.141
		c-0.453-0.511-0.667-1.196-0.679-2.139C49.475,186.71,49.5,184.128,49.5,181.547z"/>
	<path fill="none" d="M267.622,167.017c0.27-0.05,0.531-0.081,0.785-0.093C268.153,166.937,267.892,166.967,267.622,167.017z"/>
	<path fill="none" d="M180.46,182.505c0.38,0.011,0.675,0.065,0.904,0.17l0,0C181.135,182.569,180.84,182.516,180.46,182.505
		c-0.749-0.022-1.517-0.104-2.244,0.021C178.944,182.4,179.711,182.484,180.46,182.505z"/>
	<path d="M474.67,203.355c-0.402-0.074-0.76-0.139-1.169-0.084c-0.062,0.008-0.115,0.012-0.171,0.018
		c-0.041-0.215-0.071-0.404-0.072-0.561c-0.101-4.076-0.16-8.162-0.264-12.252c-0.15-5.922-0.342-11.836-0.49-17.75
		c-0.008-0.279-0.011-0.558-0.011-0.837c-0.001-1.669,0.112-3.379,0.112-5.143c0-0.596-0.015-1.198-0.051-1.807
		c-0.092-1.549-0.119-3.109-0.119-4.679c0-0.719,0.006-1.276,0.013-1.784c0.257,0.009,0.514,0.018,0.771,0.026
		c0.552,0.017,1.015-0.416,1.03-0.968c0.017-0.555-0.417-1.016-0.969-1.034c-0.267-0.008-0.535-0.018-0.802-0.026
		c0.006-0.458,0.01-0.968,0.01-1.6c0-0.552-0.489-1.695-1.042-1.695s-1.008,0.803-1.008,1.355c0,0.723,0,1.317,0,1.872
		c-1.72-0.058-3.442-0.115-5.17-0.152c-4.87-0.1-9.704,0.075-14.434-0.318c-5.362-0.443-10.713-0.659-16.081-0.696
		c-7.158-0.048-14.325-0.188-21.503-0.216h-0.037c-1.648,0.006-3.154,0.378-4.532,0.461c-1.428,0.093-2.87,0.183-4.376,0.454
		c-2.343,0.423-4.825,0.467-7.338,0.541c-0.755,0.022-1.514,0.029-2.275,0.029c-1.32,0-2.654-0.021-3.998-0.021
		c-0.737,0-1.479,0.006-2.226,0.027c-3.78,0.104-7.524,0.384-11.243,0.466c-2.19,0.048-4.375,0.127-6.535,0.127
		c-1.551,0-3.088-0.041-4.609-0.16c-6.36-0.498-12.686-0.432-18.982-0.45c-1.826-0.454-3.638-0.562-5.406-0.562
		c-1.643,0-3.25,0.088-4.816,0.088c-0.204,0-0.408-0.001-0.611-0.005c-2.89-0.047-5.806-0.146-8.73-0.147
		c-2.114,0-4.234,0.052-6.354,0.217c-4.49,0.352-9.117-0.006-13.779,0.511c-2.738,0.306-5.489,0.364-8.265,0.364
		c-1.597,0-3.198-0.019-4.812-0.019c-0.778,0-1.561,0.004-2.344,0.018c-0.229,0.004-0.465,0.006-0.695,0.006
		c-2.21,0-4.442-0.177-6.626-0.511c-1.822-0.279-3.595-0.365-5.339-0.486c-0.707-0.049-1.411-0.069-2.109-0.069
		c-3.15,0.002-6.202,0.397-9.188,0.395c-0.25,0-0.502-0.002-0.752-0.008c-0.531-0.013-1.062-0.018-1.596-0.018
		c-3.298,0-6.559,0.204-9.773,0.204c-0.215,0-0.43-0.001-0.646-0.003c-3.264-0.027-6.596-0.408-10.001-0.436l-0.206-0.001
		c-0.623,0-1.24,0.023-1.854,0.058c-0.021-0.203-0.04-0.378-0.037-0.516c0-0.162,0.02-0.263,0.046-0.331
		c0.029-0.068,0.058-0.123,0.177-0.225c0.426-0.351,0.487-0.981,0.136-1.408c-0.351-0.427-0.979-0.487-1.406-0.136
		c-0.356,0.29-0.622,0.659-0.768,1.038c-0.148,0.378-0.185,0.746-0.185,1.061c0.002,0.248,0.021,0.468,0.042,0.667
		c-1.021,0.09-2.03,0.189-3.025,0.26c-0.551,0.04-0.966,0.518-0.926,1.069c0.04,0.551,0.518,0.965,1.069,0.926
		c1.027-0.074,2.039-0.173,3.041-0.261c0.069,0.388,0.13,0.742,0.128,1.017c0.019,5.078-0.001,10.161,0.021,15.25v0.084
		c0,0.252-0.011,0.48-0.029,0.696c-0.102-0.164-0.213-0.306-0.358-0.365c-0.861-0.355-1.13-1.206-1.721-1.773
		c-0.901-0.866-1.671-1.836-2.405-2.835c-0.343-0.623-0.752-1.199-1.221-1.737c-0.07-0.081-0.137-0.166-0.208-0.248
		c-0.627-0.869-1.27-1.726-1.992-2.52c-0.42-0.46-0.683-1.058-1.077-1.546c-0.862-1.068-1.739-2.126-2.658-3.145
		c-0.279-0.31-0.341-0.444,0.001-0.727c0.081-0.067,0.158-0.135,0.23-0.206c0.392-0.135,0.678-0.497,0.678-0.935
		c0-0.456-0.312-0.825-0.73-0.945c-0.471-0.312-1.312-0.475-1.787-0.291l-2.19,2.19c-0.384,0.215-0.784,0.458-1.177,0.78
		c-0.156,0.129-0.308,0.262-0.463,0.392c-0.052,0.031-0.099,0.071-0.151,0.1c-1.443,0.798-2.735,2.35-4.67,1.039
		c-0.171-0.117-0.489-0.011-0.739-0.017c-0.823-0.018-1.125,0.236-0.805,1.037c0.235,0.589,0.306,1.004-0.029,1.249
		c-0.383-0.102-0.805,0.027-1.058,0.362c-0.332,0.445-0.243,1.072,0.198,1.404c0.101,0.078,0.208,0.146,0.319,0.206
		c0.702,0.822,2.021,1.374,2.925,1.099c1.088-0.329,2.816-0.115,3.623,0.408c3.218,2.086,6.499,4.079,9.644,6.268
		c1.902,1.324,4.016,2.434,5.441,4.354c0.259,0.349,0.272,0.881,0.398,1.329c-0.37,0.094-0.736,0.216-1.111,0.282
		c-0.184,0.032-0.367,0.047-0.55,0.056c-0.371-0.052-0.745-0.082-1.121-0.082l-0.218,0.003c-1.056-0.16-2.096-0.472-3.153-0.442
		c-3.1,0.087-6.181-0.054-9.308,0.362c-0.733,0.097-1.47,0.161-2.208,0.21c-1.534,0.042-3.065,0.073-4.593,0.073
		c-0.245,0-0.489-0.001-0.733-0.002c-0.14-0.001-0.28-0.001-0.42-0.001c-1.384,0-2.749,0.041-4.104,0.065
		c-6.328,0.111-12.66,0.176-18.996,0.264c-0.129,0.002-0.257,0.003-0.386,0.003c-0.308,0-0.613-0.015-0.918-0.025
		c-1.325-0.153-2.586-0.757-3.952-0.499c-1.069-1.16-2.478-0.959-3.843-0.991c-0.248-0.006-0.461-0.037-0.641-0.098
		c-0.003-0.216-0.013-0.433-0.013-0.649c0-1.467,0.066-2.927,0.235-4.384c0.021-0.181,0.03-0.358,0.03-0.532
		c-0.005-0.846-0.188-1.584-0.258-2.2c-0.248-2.046-0.622-4.017-0.713-5.931c-0.165-3.375-0.191-6.775-0.262-10.191
		c0.829,0,1.658,0,2.487,0c0.552,0,1-0.448,1-1c0-0.552-0.449-1.005-1.001-1.005c-0.725,0-1.449,0-2.173,0
		c-0.042-0.176-0.059-0.415-0.077-0.763c-0.012-0.25,0.095-0.567-0.022-0.736c-0.227-0.33-0.574-0.577-0.872-0.859
		c-0.137,0.59-1.268,0.058-1.116,0.999c0.053,0.325-0.016,0.667,0.014,0.998c0.012,0.135,0.011,0.253,0,0.361
		c-15.084,0-30.169,0-45.253,0c-0.332,0.002-0.764-0.053-1.269-0.055c-0.3,0-0.632,0.022-0.985,0.117
		c-0.965,0.263-1.839,0.487-2.607,0.484c-0.579-0.003-1.094-0.109-1.651-0.418c-0.162-0.09-0.346-0.134-0.531-0.126
		c-0.34,0.015-0.681,0.021-1.024,0.021c-2.385,0.002-4.857-0.319-7.417-0.322c-1.213,0-2.448,0.075-3.698,0.302
		c-0.125,0.023-0.277,0.034-0.455,0.033c-0.306,0.001-0.682-0.034-1.114-0.035c-4.311,0-8.621-0.001-12.931-0.001
		c-6.106,0-12.213,0.002-18.32,0.012c-0.963,0.005-1.822,0.178-2.585,0.241c-0.877,0.084-1.597,0.285-2.154,0.276
		c-0.314-0.001-0.567-0.046-0.833-0.172l-0.002-0.001c-0.257-0.119-0.469-0.132-0.629-0.134c-0.213,0.001-0.361,0.031-0.453,0.045
		h0.003c-0.781,0.123-1.569,0.171-2.369,0.171c-2.472,0.005-5.055-0.474-7.779-0.479c-0.157,0-0.313,0.001-0.47,0.005
		c-2.384,0.053-4.772,0.067-7.165,0.067c-3.037,0-6.079-0.024-9.126-0.024c-0.729,0-1.459,0.001-2.19,0.005
		c-1.734,0.01-3.385,0.223-4.951,0.221h-0.042c-1.637-0.003-3.305-0.11-4.995-0.195c0.001-0.678,0.001-1.356,0.002-2.035
		c-0.005-0.407,0.13-0.949,0.229-1.611c0.078-0.546-0.303-1.053-0.85-1.131c-0.546-0.079-1.052,0.301-1.13,0.848
		c-0.066,0.505-0.242,1.129-0.249,1.889c-0.001,0.667-0.001,1.335-0.002,2.002c-1.919,0-3.838,0-5.758,0c-0.552,0-1,0.448-1,1
		s0.448,1,1,1c1.919,0,3.837,0,5.756,0c-0.006,3.451-0.013,6.901-0.013,10.352c0,3.633,0.005,7.267,0.019,10.901
		c0.01,2.521,0.224,4.988,0.223,7.396c0,0.195-0.001,0.393-0.004,0.586c-0.105,6.936-0.307,13.877-0.466,20.825
		c-0.057,0.007-0.11,0.007-0.168,0.016c-0.329,0.048-0.692,0.144-1.046,0.363l-0.016-0.007c-0.087-0.041-0.225-0.125-0.422-0.227
		c-0.196-0.096-0.471-0.225-0.866-0.229c-0.228-0.002-0.484,0.057-0.704,0.17c-0.221,0.113-0.403,0.271-0.553,0.444
		c-0.361,0.418-0.315,1.05,0.103,1.411c0.354,0.306,0.852,0.303,1.219,0.045c0.063,0.034,0.136,0.074,0.231,0.127
		c0.225,0.115,0.561,0.289,1.041,0.294c0.343,0.005,0.724-0.116,1.024-0.327c0.01-0.009,0.059-0.028,0.126-0.047
		c0,0.068-0.002,0.137-0.002,0.205c0,0.576,0.008,1.155,0.029,1.736c0.042,1.133,0.162,2.229,0.243,3.29
		c0.042,0.551,0.522,0.963,1.073,0.921c0.551-0.042,0.963-0.521,0.921-1.073c-0.085-1.104-0.201-2.175-0.238-3.21
		c-0.02-0.552-0.028-1.105-0.028-1.664c0-0.104,0.003-0.208,0.004-0.311c0.103-0.012,0.181-0.02,0.212-0.02
		c1.163,0.474,2.316,0.555,3.374,0.555c0.63,0,1.233-0.025,1.804-0.024h0.117c1.502,0.009,3.002,0.013,4.502,0.013
		c2.087,0,4.172-0.006,6.255-0.006c0.457-0.007,0.811-0.076,0.983-0.07l0.075,0.006c0.872,0.458,1.758,0.555,2.527,0.554
		c0.659-0.002,1.255-0.062,1.776-0.06c0.338,0,0.643,0.021,0.915,0.084c1.799,0.396,3.563,0.496,5.319,0.496h0.158
		c2.529-0.012,5.058-0.014,7.587-0.014c3.219,0,6.439,0.004,9.66,0.004c3.167,0,6.333,0,9.5,0c0.309-0.001,0.666,0.021,1.063,0.021
		c0.259,0,0.537-0.01,0.83-0.053c0.401-0.062,0.714-0.188,0.966-0.283c0.251-0.099,0.441-0.164,0.562-0.185
		c0.076-0.013,0.177-0.021,0.304-0.021c0.191,0,0.437,0.019,0.729,0.02c0.119,0,0.246-0.004,0.381-0.016l-0.004,0.001
		c0.331-0.029,0.594-0.103,0.8-0.149c0.205-0.05,0.352-0.072,0.405-0.07l0.025,0.002c0.136,0.024,0.265,0.033,0.383,0.033
		c0.284,0,0.505-0.048,0.666-0.076c0.112-0.022,0.18-0.033,0.221-0.038c0.245,0.135,0.523,0.233,0.808,0.231
		c0.288,0.001,0.536-0.081,0.712-0.165c0.266-0.129,0.412-0.247,0.487-0.288l0.009-0.005c5.574-0.107,11.129-0.346,16.669-0.438
		c0.236-0.004,0.474-0.006,0.712-0.006c2.371-0.002,4.79,0.187,7.254,0.227c0.156,0.002,0.312,0.004,0.468,0.004
		c1.538-0.001,3.04-0.107,4.477-0.107c0.916,0,1.803,0.043,2.656,0.176c4.004,0.615,7.872,0.224,11.556,0.65
		c0.432,0.051,0.858,0.068,1.278,0.068c2.014-0.007,3.887-0.438,5.615-0.486c4.884-0.152,9.82-0.062,14.808-0.494
		c1.825-0.158,3.646-0.271,5.465-0.271c1.12,0,2.24,0.044,3.359,0.146c0.759,0.067,1.515,0.094,2.266,0.094
		c1.449,0,2.877-0.094,4.28-0.169c0.007,0.468,0.02,0.937,0.026,1.405v0.036c0.004,0.488-0.136,1.103-0.23,1.825
		c-0.068,0.548,0.321,1.047,0.869,1.115c0.548,0.066,1.048-0.32,1.116-0.869c0.067-0.573,0.241-1.262,0.245-2.071v-0.062v-0.004
		c-0.006-0.487-0.021-0.974-0.028-1.461c0.005,0,0.009,0,0.014,0c0.06,0.023,0.215,0.095,0.455,0.183
		c0.523,0.176,1.09-0.104,1.266-0.631c0.066-0.195,0.052-0.39,0.004-0.573l0.016-0.023c-0.008-0.002-0.016-0.004-0.024-0.006
		c-0.089-0.303-0.301-0.562-0.622-0.671c-0.04-0.012-0.15-0.062-0.315-0.13c-0.166-0.064-0.401-0.156-0.74-0.16l-0.036,0.001v-0.001
		c-0.019,0-0.037,0.002-0.056,0.002c-0.052-3.097-0.104-6.193-0.176-9.289c-0.063-2.733-0.063-5.511-0.271-8.3
		c-0.127-1.701-0.263-3.388-0.361-5.065c0.164-0.074,0.385-0.117,0.688-0.15c1.994-0.221,3.839,0.624,5.798,0.564
		c0.567-0.018,1.136-0.034,1.704-0.047c0.348,0.013,0.697,0.029,1.046,0.029c0.138,0,0.275-0.001,0.414-0.003
		c0.702-0.01,1.404-0.018,2.106-0.027c0.493,0.014,0.985,0.032,1.477,0.063c0.934,0.06,1.852-0.012,2.765-0.118
		c4.217-0.053,8.436-0.106,12.656-0.182c0.93-0.018,1.849-0.037,2.764-0.051c0.305,0.074,0.609,0.164,0.911,0.292
		c0.424,0.179,1.175,0.234,1.454-0.014c0.147-0.131,0.298-0.221,0.45-0.295c2.563-0.007,5.119-0.082,7.667-0.173
		c0.986,0.004,1.973,0.009,2.959,0.009c3.083,0,6.166-0.002,9.249,0.008c0.145,0,0.289,0.101,0.433,0.154
		c-0.059,0.119-0.089,0.273-0.183,0.348c-0.436,0.342-0.874,0.687-1.34,0.985c-0.985,0.631-2.038,1.167-2.97,1.866
		c-1.163,0.873-2.234,1.865-3.341,2.811c-1.17,1-2.357,1.982-3.5,3.01c-1.747,1.576-1.733,1.592-4.292,1.318
		c-1.301-0.139-2.062,0.646-1.767,1.898c0.085,0.359,0.359,0.707,0.627,0.981c1.219,1.255,2.47,2.48,3.703,3.722
		c1.486,1.494,1.513,1.746,0.351,3.438c-0.14,0.203-0.392,0.331-0.517,0.539c-0.344,0.566-0.237,1.615,0.171,2.023
		c0.515,0.517,1.584,0.566,2.203,0.078c0.26-0.205,0.475-0.467,0.712-0.703c0.523-0.519,1.044-1.058,1.242,0.234
		c0.021,0.135,0.2,0.252,0.319,0.363c0.674,0.633,1.816,0.609,2.382-0.041c0.48-0.553,0.377-1.119-0.307-1.887
		c-0.483-0.543-1.243-1.074-1.316-1.678c-0.067-0.552,0.618-1.197,0.986-1.791c0.086-0.139,0.251-0.225,0.346-0.359
		c2.066-2.893,4.208-5.734,6.158-8.705c1.076-1.636,2.53-2.869,3.833-4.268c0.043,0.149,0.07,0.275,0.069,0.342v0.017
		c-0.011,0.322-0.017,0.644-0.017,0.962c0.002,2.209,0.233,4.334,0.232,6.409c0,0.698-0.025,1.392-0.092,2.079
		c-0.056,0.583-0.079,1.163-0.079,1.738c0.002,1.916,0.239,3.788,0.373,5.596c-0.35,0.034-0.848,0.011-1.193,0.068
		c-0.133,0.023-0.227,0.234-0.358,0.336c-0.276,0.211-0.772,0.375-0.808,0.615c-0.1,0.668,0.5,0.457,0.862,0.479
		c0.415,0.028,0.836,0.036,1.249,0c0.127-0.011,0.232-0.006,0.332,0.005c0,0.009,0.001,0.018,0.001,0.025
		c0.005,0.18,0.007,0.357,0.007,0.539c0.001,1.492-0.156,3.039-0.232,4.638c-0.026,0.551,0.4,1.021,0.952,1.046
		c0.552,0.025,1.02-0.4,1.046-0.952c0.071-1.524,0.233-3.103,0.234-4.729c0-0.142-0.003-0.285-0.005-0.429
		c0.502-0.065,0.979-0.125,1.399-0.122l0.1,0.002c6.496,0.142,12.995,0.318,19.497,0.484c0.836,0.021,1.627-0.005,2.366,0.032
		c0.741,0.034,1.427,0.132,2.085,0.368c0.419,0.148,0.824,0.185,1.191,0.186c0.555-0.002,1.048-0.076,1.434-0.095
		c1.027-0.058,1.95-0.237,2.74-0.231c0.13,0,0.257,0.004,0.38,0.014c0.456,0.035,0.907,0.051,1.354,0.051
		c2.854-0.008,5.525-0.583,8.092-0.576c0.119,0,0.24,0.001,0.359,0.004c0.194,0.004,0.392-0.051,0.557-0.154
		c0.132-0.078,0.188-0.086,0.299-0.091c0.148-0.005,0.415,0.066,0.777,0.195c0.361,0.118,0.819,0.299,1.418,0.304
		c0.117,0,0.238-0.008,0.363-0.025c3.869-0.567,7.834-0.445,11.865-0.48c7.668-0.068,15.337-0.148,23.005-0.252
		c4.095-0.055,8.179-0.162,12.257-0.243h0.01l0.014-0.001c0.139-0.004,0.408,0.042,0.777,0.046c0.22-0.001,0.488-0.02,0.787-0.136
		c0.901-0.354,1.864-0.441,2.92-0.441c0.783,0,1.609,0.051,2.473,0.051c2.035,0.002,4.105,0.152,6.216,0.229
		c2.586,0.092,5.171,0.171,7.754,0.251l0.009,0.001h0.062c0.245-0.003,0.394-0.023,0.443-0.022c2.708,0.903,5.452,0.901,7.996,0.97
		c3.705,0.094,7.406,0.119,11.105,0.119c4.989,0,9.973-0.049,14.948-0.049c6.063,0,12.122,0.072,18.17,0.396
		c2.111,0.11,4.226,0.161,6.342,0.161c4.093,0,8.189-0.184,12.278-0.445c7.008-0.451,14.111-0.35,21.248-0.826
		c5.09-0.342,10.252-0.229,15.44-0.293c0.942-0.013,1.889-0.016,2.832-0.016c1.239,0,2.484,0.005,3.729,0.008
		c0.119,0.075,0.237,0.15,0.331,0.24c0.474,0.455-0.011,2.49,0.085,3.384c0.025,0.248,1.144,0.224,1.327,0.255
		c0.637,0.11,0.424-1.285,0.426-1.685c0.002-0.5-0.011-1.066,0-1.565c0.011-0.673,0.217-0.81,0.834-0.937
		c0.238-0.05,0.457-0.169,0.687-0.233c0.108-0.029,0.242-0.268,0.219-0.382C474.937,203.879,474.808,203.38,474.67,203.355z
		 M236.495,187.624c-1.283,1.698-2.203,3.649-3.625,5.246c-1.699,1.91-3.185,3.972-4.591,6.099c-0.215,0.327-0.425,0.478-0.648,0.4
		c-0.134-0.046-0.272-0.173-0.418-0.395c-0.438-0.66-0.89-1.32-1.419-1.906c-0.459-0.506-0.331-0.838,0.106-1.221
		c1.409-1.232,2.686-2.671,4.254-3.644c1.153-0.716,1.935-1.724,2.932-2.542c0.997-0.819,1.981-1.653,2.981-2.465
		c0.075-0.062,0.234-0.045,0.346-0.023l0.088,0.204L236.495,187.624z M243.167,176.856c0.109-0.285,0.193-0.57,0.243-0.848
		c0.087-0.496,0.101-0.97,0.102-1.419v-0.093c-0.024-5.079-0.004-10.161-0.022-15.25c-0.004-0.43-0.062-0.812-0.124-1.159
		c0.567-0.032,1.129-0.051,1.687-0.051l0.189,0.001c3.264,0.024,6.595,0.404,10,0.436c0.222,0.002,0.441,0.003,0.662,0.003
		c3.301-0.001,6.561-0.204,9.773-0.204c0.52,0,1.033,0.005,1.549,0.017c0.269,0.006,0.533,0.009,0.801,0.009
		c3.152-0.002,6.205-0.397,9.186-0.395c0.66,0,1.316,0.019,1.973,0.064c1.771,0.123,3.483,0.208,5.174,0.468
		c2.279,0.349,4.61,0.535,6.93,0.535c0.242,0,0.486-0.002,0.73-0.006c0.769-0.013,1.536-0.018,2.309-0.018
		c1.597,0,3.199,0.019,4.812,0.019c2.802,0,5.63-0.057,8.485-0.376c4.408-0.498,9.017-0.145,13.712-0.504
		c2.05-0.159,4.118-0.211,6.199-0.211c2.881,0,5.784,0.1,8.698,0.147c0.218,0.003,0.432,0.005,0.646,0.005
		c1.642,0,3.249-0.088,4.815-0.088c1.738,0,3.423,0.107,5.057,0.531l0.248,0.032c6.347,0.018,12.652-0.049,18.929,0.444
		c1.593,0.125,3.183,0.166,4.767,0.166c2.209,0,4.408-0.08,6.582-0.128c3.785-0.084,7.533-0.364,11.254-0.466
		c0.721-0.02,1.441-0.026,2.17-0.026c1.32,0,2.654,0.021,3.998,0.021c0.773,0,1.554-0.007,2.335-0.03
		c2.493-0.075,5.075-0.112,7.634-0.571c1.357-0.246,2.721-0.334,4.15-0.426c1.609-0.111,3.075-0.464,4.401-0.458h0.027
		c7.158,0.028,14.321,0.168,21.499,0.216c5.322,0.037,10.623,0.25,15.931,0.689c4.886,0.403,9.761,0.224,14.556,0.325
		c1.732,0.036,3.47,0.093,5.209,0.152c0,0.547,0,1.136,0,1.85c0,1.593,0.025,3.193,0.123,4.796c0.03,0.56,0.045,1.122,0.045,1.689
		c0.001,1.676-0.111,3.385-0.112,5.143c0,0.295,0.003,0.591,0.011,0.889c0.149,5.92,0.34,11.837,0.49,17.75
		c0.104,4.076,0.163,8.158,0.264,12.248c0.003,0.083,0.021,0.146,0.027,0.225c-1.312-0.002-2.625-0.008-3.942-0.008
		c-0.95,0-1.901,0.003-2.855,0.016c-5.146,0.064-10.345-0.051-15.552,0.297c-7.026,0.473-14.131,0.371-21.242,0.826
		c-4.062,0.262-8.116,0.441-12.149,0.441c-2.085,0-4.164-0.049-6.235-0.159c-6.103-0.323-12.193-0.396-18.274-0.396
		c-4.989,0-9.974,0.049-14.948,0.049c-3.689,0-7.375-0.026-11.057-0.121c-2.594-0.062-5.146-0.088-7.459-0.879
		c-0.227-0.076-0.422-0.088-0.571-0.09c-0.257,0.004-0.413,0.027-0.458,0.024l-0.016-0.001l0.008,0.001
		c-2.585-0.082-5.166-0.16-7.746-0.251c-2.059-0.073-4.15-0.229-6.285-0.229c-0.781,0-1.607-0.052-2.473-0.053
		c-1.152,0.001-2.386,0.094-3.631,0.574l-0.012,0.002l-0.062,0.002c-0.137,0.005-0.407-0.041-0.778-0.046L335.479,203h0.01
		c-4.09,0.081-8.17,0.189-12.243,0.243c-7.665,0.103-15.33,0.182-22.996,0.252c-3.979,0.039-8.035-0.099-12.138,0.503l-0.074,0.005
		c-0.139,0.005-0.404-0.063-0.77-0.194c-0.363-0.121-0.826-0.301-1.429-0.305c-0.341-0.004-0.72,0.075-1.078,0.243
		c-0.048,0-0.096-0.001-0.143-0.001c-2.849,0.007-5.521,0.583-8.091,0.576c-0.403,0-0.805-0.014-1.203-0.045
		c-0.18-0.014-0.357-0.021-0.532-0.021c-1.058,0.004-2.01,0.197-2.843,0.234c-0.516,0.028-0.979,0.095-1.331,0.093
		c-0.233,0.001-0.407-0.025-0.515-0.064c-0.916-0.33-1.814-0.443-2.664-0.485c-0.851-0.041-1.654-0.015-2.414-0.034
		c-6.5-0.166-13-0.346-19.504-0.486h-0.143c-0.535,0.001-1.034,0.059-1.504,0.12c-0.139-1.805-0.357-3.557-0.355-5.231
		c0-0.522,0.021-1.041,0.07-1.549c0.073-0.768,0.1-1.522,0.101-2.271c-0.002-2.219-0.233-4.345-0.232-6.409
		c0-0.298,0.005-0.595,0.016-0.89v-0.005l0.001-0.084c-0.002-0.469-0.122-0.854-0.232-1.174c-0.034-0.096-0.064-0.178-0.097-0.264
		c0.175-0.6,0.54-1.115,1.293-1.568c0.808-0.483,1.391-1.353,1.982-2.189c0.109,0,0.219,0,0.328,0c0.552,0,1-0.447,1-1s-0.448-1-1-1
		c-0.042,0-0.083,0-0.125,0c-0.001,0-0.003,0-0.004,0c-0.232-0.423-0.537-0.806-0.831-0.895c-1.046-0.316-1.489-1.233-2.254-1.81
		c-0.172-0.129-0.285-0.276-0.372-0.435C243.165,176.858,243.166,176.857,243.167,176.856z M226.953,161.986
		c0.226-0.039,0.428,0.063,0.584,0.262c0.042,0.053,0.08,0.111,0.115,0.177c0.459,0.875,1.091,1.601,1.77,2.287
		c0.453,0.458,0.927,0.897,1.385,1.352c0.688,0.682,1.341,1.397,1.835,2.253c0.527,0.913,1.453,1.591,2.246,2.359
		c0,0.001,0.001,0.001,0.001,0.002c0.189,0.267,0.348,0.532,0.478,0.795c0,0,0,0.001,0.001,0.001
		c0.012,0.123,0.022,0.249,0.046,0.361c-0.239-0.092-0.478-0.183-0.707-0.27c-0.735,0.763-1.304-0.14-1.697-0.386
		c-2.917-1.819-5.742-3.787-8.625-5.663c-0.043-0.028-0.065-0.055-0.101-0.082c-0.368-0.277-0.41-0.528-0.102-0.854
		c0.731-0.775,1.51-1.505,2.25-2.272C226.592,162.2,226.766,162.093,226.953,161.986z M178.001,179.479
		c-0.602-0.071-0.958,0.192-1.265,0.521c-0.162,0-0.325,0-0.487,0c-0.552,0-1,0.447-1,1s0.448,1,1,1c0.162,0,0.323,0,0.484-0.001
		c0,0,0.001,0,0.001,0c0.371,0.367,0.798,0.645,1.481,0.526c0.727-0.125,1.495-0.043,2.244-0.021
		c0.38,0.012,0.675,0.065,0.904,0.171l0,0c0.101,1.728,0.239,3.445,0.366,5.151c0.201,2.691,0.203,5.432,0.266,8.195
		c0.071,3.11,0.124,6.219,0.176,9.326c-1.442,0.077-2.86,0.172-4.24,0.172c-0.705,0-1.4-0.023-2.084-0.088
		c-1.189-0.106-2.37-0.152-3.541-0.152c-1.902,0-3.781,0.119-5.638,0.279c-4.85,0.422-9.749,0.334-14.699,0.488
		c-1.989,0.07-3.841,0.492-5.552,0.485c-0.356,0-0.707-0.017-1.052-0.056c-3.97-0.445-7.806-0.062-11.475-0.643
		c-0.996-0.152-1.986-0.199-2.963-0.199c-1.534,0-3.036,0.108-4.477,0.108c-0.146,0-0.292-0.002-0.436-0.004
		c-2.383-0.038-4.812-0.226-7.286-0.228c-0.248,0-0.497,0.002-0.746,0.006c-5.602,0.098-11.185,0.338-16.753,0.441
		c-0.283,0.005-0.527,0.087-0.703,0.17c-0.204,0.1-0.324,0.183-0.409,0.239c-0.265-0.132-0.539-0.191-0.746-0.188
		c-0.281,0.002-0.483,0.049-0.637,0.076c-0.153,0.03-0.256,0.043-0.293,0.042l-0.017-0.001c-0.138-0.025-0.269-0.035-0.392-0.035
		c-0.359,0.004-0.64,0.073-0.868,0.127c-0.226,0.055-0.401,0.094-0.5,0.102l-0.005,0.001l-0.208,0.008
		c-0.193,0-0.438-0.019-0.729-0.021c-0.192,0-0.406,0.011-0.639,0.049c-0.395,0.068-0.7,0.195-0.945,0.289
		c-0.244,0.097-0.427,0.156-0.539,0.17c-0.158,0.023-0.338,0.033-0.539,0.033c-0.309,0-0.666-0.021-1.063-0.022
		c-3.167,0-6.333,0-9.5,0c-3.219,0-6.439-0.004-9.66-0.004c-2.531,0-5.062,0.002-7.594,0.012h-0.151
		c-1.681,0-3.291-0.096-4.887-0.448c-0.47-0.104-0.922-0.131-1.347-0.132c-0.653,0.002-1.249,0.062-1.776,0.062
		c-0.637-0.002-1.145-0.075-1.625-0.336c-0.367-0.194-0.708-0.223-0.977-0.225c-0.457,0.008-0.811,0.078-0.983,0.071
		c-2.086,0-4.171,0.005-6.255,0.005c-1.497,0-2.994-0.002-4.489-0.012h-0.13c-0.629,0-1.232,0.025-1.804,0.023
		c-0.995,0.002-1.875-0.078-2.685-0.427h-0.002c-0.266-0.11-0.495-0.127-0.674-0.128c-0.075,0.001-0.129,0.007-0.192,0.012
		c0.158-6.896,0.358-13.797,0.464-20.705c0.003-0.207,0.004-0.412,0.004-0.617c-0.001-2.521-0.215-4.99-0.223-7.401
		c-0.014-3.631-0.019-7.262-0.019-10.893c0-3.438,0.007-6.875,0.013-10.313c1.641,0.083,3.301,0.188,4.993,0.192h0.006h0.041
		c1.738-0.002,3.391-0.216,4.96-0.221c0.726-0.003,1.453-0.005,2.18-0.005c3.037,0,6.079,0.024,9.126,0.024
		c2.401,0,4.804-0.015,7.21-0.068c0.142-0.003,0.284-0.004,0.425-0.004c2.479-0.005,5.062,0.474,7.779,0.479
		c0.879,0,1.774-0.053,2.681-0.195h0.003l0.07-0.011c0.525,0.22,1.052,0.302,1.529,0.3c0.939-0.008,1.711-0.239,2.326-0.284
		c0.906-0.082,1.712-0.235,2.416-0.233c6.105-0.01,12.211-0.012,18.317-0.012c4.31,0,8.621,0.001,12.931,0.001
		c0.306-0.001,0.681,0.034,1.114,0.035c0.251,0,0.523-0.013,0.812-0.065c1.097-0.199,2.209-0.27,3.34-0.27
		c2.387-0.002,4.858,0.319,7.417,0.322c0.284,0,0.57-0.008,0.856-0.018c0.786,0.383,1.592,0.543,2.351,0.542
		c1.134-0.003,2.165-0.296,3.128-0.553c0.112-0.03,0.267-0.048,0.464-0.047c0.331-0.002,0.764,0.053,1.269,0.055
		c15.004,0,30.009,0,45.013,0c0.07,3.413,0.097,6.847,0.264,10.292c0.104,2.101,0.492,4.117,0.726,6.073
		c0.097,0.765,0.248,1.437,0.243,1.96c0,0.106-0.005,0.207-0.016,0.302c-0.18,1.548-0.249,3.086-0.249,4.614
		c0,0.232,0.011,0.462,0.014,0.694c-0.15,0.049-0.316,0.076-0.499,0.069C179.831,179.476,178.905,179.585,178.001,179.479z
		 M76.818,155.667L76.818,155.667l-0.002-0.001C76.816,155.667,76.817,155.667,76.818,155.667z M32.667,207.475L32.667,207.475
		L32.667,207.475L32.667,207.475z M32.998,207.403L32.998,207.403L33,207.406L32.998,207.403z"/>
	<path d="M259.275,170.367c-2.756,1.981-4.656,4.516-6.309,7.382c-1.163,2.018-1.321,4.294-1.905,6.452
		c-0.3,1.104,0.081,2.339,0.366,3.542c0.514,2.155,1.681,3.788,3.267,5.134c0.857,0.729,2.006,1.465,3.062,1.525
		c0.898,0.053,1.732,0.314,2.587,0.488c0.312,0.063,0.625,0.117,0.946,0.143c1.648,0.127,3.25-0.174,4.777-0.582
		c2.139-0.572,4.1-1.648,5.578-3.377c0.391-0.455,0.886-1.155,0.781-1.622c-0.154-0.706-0.666-1.629-1.259-1.86h-0.001
		c-0.619-0.24-1.583-0.443-2.312,0.287c-2.037,2.053-4.523,2.77-7.402,2.666c-0.787-0.028-1.503-0.165-2.16-0.403
		c-1.095-0.396-2.025-1.071-2.85-1.991c-0.445-0.498-0.838-1.203-0.904-1.852c-0.229-2.175,0.25-4.242,1.143-6.254
		c0.994-2.247,2.478-4.066,4.236-5.753c1.826-1.752,3.778-3.092,6.375-3.353c0.535-0.054,0.937-0.021,1.216,0.147
		c0.28,0.168,0.438,0.471,0.486,0.956c0.034,0.354-0.059,0.775,0.239,0.919c0.101,0.048,0.244,0.065,0.451,0.039
		c0.001,0,0.001,0,0.002,0c0.048,0.062,0.097,0.097,0.146,0.147c0.001,0.002,0.003,0.004,0.004,0.006
		c0.155,0.35,0.503,0.596,0.912,0.596c0.34,0,0.626-0.181,0.807-0.44c0.244-0.124,0.477-0.267,0.686-0.374
		c1.446-0.746,1.592-2.71,0.563-3.904c-0.519-0.602-1.073-1.092-1.679-1.448c-0.585-0.344-1.218-0.558-1.907-0.633
		c-0.263-0.029-0.531-0.042-0.812-0.027c-0.254,0.013-0.516,0.043-0.785,0.093c-0.113,0.024-0.228,0.042-0.341,0.055
		c-0.798,0.089-1.607-0.057-2.486,0.277C262.781,168.107,261.029,169.106,259.275,170.367z"/>
	<path d="M441.993,187.102c-0.093,1.864,0.483,3.58,0.921,5.356c0.279,1.132,1.041,1.615,1.656,2.317
		c0.147,0.168,0.466,0.251,0.833,0.269c0.612,0.028,1.359-0.126,1.674-0.37c1.19-0.925,1.321-2.954,0.257-4.089
		c-0.342-0.364-0.718-0.696-1.055-1.063c-0.455-0.494-0.458-1.023-0.021-1.524c1.231-1.41,2.474-2.812,3.71-4.214
		c0.246-0.278,0.499-0.369,0.763-0.239c0.089,0.043,0.178,0.111,0.269,0.205c0.289,0.299,0.645,0.552,0.873,0.892
		c2.01,2.952,3.954,5.947,6.011,8.865c0.07,0.1,0.136,0.202,0.206,0.301c0.104,0.146,0.215,0.28,0.326,0.415
		c0.041,0.05,0.079,0.105,0.121,0.153c0.138,0.158,0.284,0.304,0.434,0.443c0.02,0.019,0.038,0.041,0.059,0.06
		c1.027,0.934,2.317,1.406,3.877,1.082c0.42-0.087,0.912-0.638,1.05-1.076c0.19-0.604,0.091-1.26-0.546-1.754
		c-0.11-0.086-0.221-0.177-0.331-0.267c-0.378-0.309-0.747-0.639-1.06-1.006c-0.134-0.158-0.258-0.322-0.367-0.493
		c-1.291-2.011-2.828-3.83-4.247-5.74c-1.244-1.676-2.642-3.246-3.827-4.931c-0.33-0.468-0.704-0.851-1.111-1.133
		c-1.22-0.848-2.738-0.802-4.256,0.501c-0.883,0.757-1.657,1.641-2.487,2.46c-0.157,0.158-0.349,0.283-0.526,0.425
		c0-0.001-0.001-0.001-0.001-0.002c-0.066-0.223-0.195-0.447-0.186-0.667c0.052-1.233-0.698-2.217-1.014-3.334
		c-0.062-0.221-0.154-0.353-0.265-0.427c-0.329-0.223-0.821,0.062-1.189,0.004c-0.648-0.102-0.539,0.442-0.541,0.832
		c-0.005,1.582-0.002,3.166-0.002,4.75C442,185.102,442.041,186.102,441.993,187.102z"/>
	<path d="M418.262,192.895c1.559,1.119,3.252,2.158,5.35,2.121h0.001c0.372-0.007,0.738-0.034,1.102-0.075
		c0.092-0.01,0.185-0.017,0.275-0.029c0.024-0.003,0.048-0.009,0.072-0.012c1.324-0.193,2.567-0.638,3.638-1.442
		c0.196-0.147,0.398-0.278,0.6-0.41c0.174-0.115,0.351-0.227,0.527-0.332c0.753-0.447,1.527-0.832,2.304-1.246
		c0.43-0.229,0.86-0.463,1.285-0.707c0.878-0.505,1.721-1.069,2.397-1.846c0.459-0.527,1.268-0.812,1.199-1.75
		c-0.08-1.113,0.193-2.284-0.516-3.283c-1.41-1.984-3.271-3.244-5.76-3.374c-0.996-0.052-1.996-0.009-2.995-0.01
		c-1.312,0.06-2.61,0.053-3.928,0.216c-0.376,0.047-0.753,0.103-1.134,0.184c-0.12,0.026-0.233,0.055-0.347,0.082
		c-0.747,0.184-1.363,0.419-1.917,0.815c-0.34,0.243-0.659,0.544-0.973,0.937c-1.782,2.23-2.736,4.668-2.399,7.484
		C417.158,191.166,417.564,192.391,418.262,192.895z M424.033,184c0.001,0,0.001,0,0.002,0c0.331,0,0.664,0,1.184,0
		c0.111-0.031,0.228-0.047,0.349-0.053c0.362-0.018,0.761,0.054,1.165,0.074c0.539,0.027,1.088-0.035,1.571-0.521
		c0,0,0.001,0,0.001,0.001c0-0.001,0.001-0.001,0.001-0.001c0.149,0.128,0.308,0.213,0.471,0.281
		c0.648,0.271,1.385,0.166,2.073,0.27c0.22,0.032,0.435,0.082,0.64,0.18c0.776,0.377,1.526,0.772,1.942,1.588
		c-0.635,0.469-1.21,1.078-1.918,1.379c-1.975,0.836-3.975,1.652-6.029,2.242c-0.69,0.196-1.3,0.512-1.922,0.787
		c-0.809,0.359-1.619,0.643-2.182-0.149c-0.499-0.708-1.309-1.454-0.688-2.532c0.15-0.262,0.246-0.57,0.301-0.869
		C421.439,184.227,421.681,184.006,424.033,184z"/>
	<path d="M308.023,186.271c0.02,1.287,1.201,1.67,2.103,2.026c0.672,0.265,1.571,0.136,2.325-0.026
		c0.756-0.162,1.506-0.349,2.257-0.533c1.301-0.318,2.599-0.649,3.899-0.973c1.009,0.28,1.928,0.183,2.877,0.678
		c0.203,0.106,0.313,0.19,0.369,0.263c0.139,0.178-0.08,0.283-0.282,0.462c-0.086,0.074-0.186,0.135-0.291,0.188
		c-0.104,0.053-0.213,0.098-0.318,0.144c-0.588,0.253-1.175,0.51-1.761,0.767c-0.81,0.355-1.619,0.708-2.432,1.055
		c-0.934,0.398-1.87,0.79-2.817,1.152c-0.571,0.22-0.972,0.48-1.214,0.839c-0.241,0.357-0.324,0.812-0.26,1.419
		c0.111,1.033,0.422,1.612,1.438,1.742c0.521,0.065,1.091-0.129,1.622-0.269c2.369-0.626,4.457-1.9,6.606-3.001
		c0.176-0.09,0.351-0.181,0.527-0.268c1.405-0.694,2.569-1.959,3.698-3.106c0.045-0.046,0.071-0.106,0.107-0.158
		c0.047-0.066,0.103-0.126,0.137-0.2c0.437-0.942-0.051-2.524-1.002-2.947c-1.332-0.597-2.713-1.127-4.122-1.492
		c-0.188-0.049-0.46-0.083-0.78-0.105c-1.734-0.123-5.064,0.117-6.551,0.528c-0.156,0.043-0.3,0.087-0.411,0.134
		c-0.54,0.227-0.978,0.462-1.556,0.357c0.343-0.471,0.621-1.012,1.045-1.391c0.145-0.13,0.337-0.205,0.535-0.272
		c0.247-0.083,0.507-0.154,0.716-0.293c0.118-0.078,0.233-0.162,0.352-0.241c0.537-0.363,1.064-0.74,1.585-1.128
		c0.145-0.063,0.284-0.134,0.416-0.222c0.355-0.229,0.643-0.601,0.768-0.964c0.13-0.366,0.141-0.687,0.142-0.963l-0.003-0.243
		c-0.016-0.552-0.475-0.988-1.025-0.973c-0.551,0.01-0.986,0.469-0.973,1.021l0.003,0.19c0,0.016-0.001,0.026-0.001,0.041
		c-0.104-0.012-0.208-0.02-0.293,0.002c-2.646,0.692-5.078,1.642-6.832,4.005c-0.044,0.06-0.076,0.118-0.115,0.178
		C307.935,184.583,308.01,185.396,308.023,186.271z"/>
	<path d="M274.186,190.426c1.252,1.405,2.58,2.678,4.668,2.578c0.249-0.012,0.498-0.013,0.748-0.011s0.499,0.007,0.748,0.006
		c1.197,0.074,2.349-0.023,3.458-0.265c1.849-0.401,3.582-1.199,5.22-2.258c1.359-0.876,2.532-1.928,2.899-3.438
		c0.122-0.505,0.155-1.06,0.075-1.677c-0.343-2.637-1.746-4.584-4.037-5.833c-0.929-0.507-2.021-0.744-3.064-1.01
		c-0.243-0.062-0.477-0.044-0.707,0.002c-0.047,0.002-0.092-0.01-0.14,0c-0.497,0.105-0.866,0.216-1.097,0.22l-0.109,0.002
		c-0.383,0.005-0.923-0.088-1.532-0.095c-0.953-0.339-1.637-0.047-2.415,0.652c-1.64,1.476-2.685,3.37-3.873,5.153
		c-0.826,1.242-1.054,2.656-1.065,4.102c-0.005,0.482,0.016,0.968,0.045,1.451C274.016,190.15,274.088,190.318,274.186,190.426z
		 M282.852,180.74l0.192-0.006c0.453-0.023,0.799-0.112,1.099-0.186c2.613,0.24,4.226,1.53,5.193,4.037
		c0.362,0.936,0.303,1.614-0.186,2.006c-0.292,0.236-0.738,0.368-1.34,0.391c-1.056,0.039-1.925,0.592-2.896,0.834
		c-1.813,0.453-3.55,1.289-5.485,1.182c-1.119-0.061-1.554-0.592-1.425-1.745c0.025-0.229,0.054-0.491,0.177-0.669
		c1.021-1.465,1.551-3.186,2.534-4.699c0.389-0.6,0.76-0.988,1.163-1.206C282.168,180.705,282.495,180.737,282.852,180.74z"/>
	<path d="M294.305,181.655c0.078,0.475,0.163,0.938,0.238,1.382c0.005,0.584-0.071,1.161-0.104,1.711
		c-0.012,0.211-0.019,0.42-0.009,0.622c0.009,0.187,0.03,0.369,0.069,0.546c0,1.415-0.122,2.598,0.025,3.746
		c0.254,1.949,0.545,3.888,2.178,5.354c0.769,0.69,1.543,0.469,2.312,0.448c0.367-0.009,0.58-0.247,0.754-0.563
		c0.098-0.178,0.187-0.374,0.273-0.584c0.663-1.603,0.617-2.493-0.607-3.612c-0.266-0.242-0.884-0.384-0.885-0.572
		c-0.001-0.323,0.118-0.675,0.285-0.987c0.005-0.01,0.011-0.017,0.016-0.026c0.051-0.093,0.104-0.183,0.161-0.267
		c0.419-0.616,0.875-1.206,1.334-1.793c0.179-0.229,0.356-0.457,0.535-0.685c0.472-0.601,0.537-0.271,0.636,0.25
		c0.082,0.444,0.422,0.854,0.465,1.296c0.244,2.604,1.772,4.45,3.692,5.943c1.183,0.921,2.743,0.841,4.169,0.506
		c0.092-0.021,0.183-0.081,0.271-0.16c0.556-0.497,1.002-1.976,0.795-2.544c-0.506-1.379-1.286-1.892-2.518-1.662
		c-1.387,0.259-1.342,0.229-1.965-0.803c-1.199-1.99-1.537-4.25-1.855-6.457c-0.154-1.064-0.62-1.89-1.34-2.144
		c-0.809-0.284-1.924-0.45-2.692,0.579c-0.771,1.033-1.639,1.993-2.489,2.968c-0.107,0.122-0.215,0.245-0.321,0.368
		c-0.001,0-0.001,0.001-0.001,0.001c-0.146,0.168-0.348,0.293-0.525,0.438c-0.067-0.222-0.159-0.438-0.199-0.665
		c-0.174-1.012-0.316-2.03-0.523-3.036c-0.028-0.143-0.188-0.252-0.323-0.375c-0.001-0.002-0.001-0.005-0.002-0.007
		c-0.064-0.153-0.155-0.289-0.28-0.391c-0.004-0.003-0.006-0.007-0.01-0.01c-0.352-0.503-0.8-0.66-1.233-0.317
		c-0.216,0.17-0.491,0.536-0.578,0.77c-0.029,0.079-0.037,0.144-0.015,0.181C294.152,181.286,294.234,181.47,294.305,181.655z"/>
	<path d="M325.284,182.57c1.231,0.822,2.614,0.551,3.808,0.334c0.918-0.168,1.262-0.217,1.403,0.689
		c0.399,2.561,0.812,5.131,1.53,7.619c0.449,1.557,0.586,3.211,1.463,4.645c0.244,0.399,0.559,0.695,0.909,0.881
		c0.149,0.261,0.4,0.46,0.723,0.502c0.429,0.057,0.822-0.173,1.011-0.537c0.568-0.283,0.98-0.687,1.192-1.189
		c0.233-0.554,0.235-1.22-0.029-1.949c-0.367-1.013-0.955-1.948-1.272-2.971c-0.575-1.854-0.897-3.777-1.485-5.633
		c-0.212-0.678-0.271-1.632,0.062-2.188c0.035-0.059,0.081-0.109,0.136-0.154c0.382-0.314,1.199-0.349,1.724-0.641
		c0.447-0.25,0.923-0.556,1.258-0.936c0.079-0.09,0.158-0.181,0.219-0.279c0.609-0.993-0.144-2.203-1.321-2.258
		c-0.831-0.039-1.671,0.029-2.498-0.032c-0.218-0.016-0.493-0.294-0.597-0.519c-0.223-0.489-0.436-1.01-0.502-1.537
		c-0.209-1.676-0.355-3.359-0.514-5.041c-0.037-0.403-0.15-0.701-0.315-0.929c-0.001-0.002-0.001-0.004-0.002-0.006
		c-0.136-0.409-0.511-0.705-0.963-0.692c-0.438,0.013-0.79,0.308-0.915,0.702c-0.188,0.252-0.297,0.6-0.301,1.047
		c-0.016,2.167-0.041,4.334,0.014,6.5c0.01,0.352-0.037,0.604-0.172,0.782c-0.135,0.179-0.357,0.283-0.699,0.335
		c-0.373,0.058-0.75,0.405-1.082,0.354c-0.861-0.133-1.517,0.456-2.299,0.524c-0.446,0.038-0.774,0.172-0.985,0.408
		c-0.105,0.118-0.182,0.261-0.229,0.431s-0.065,0.366-0.054,0.589c-0.006,0.087-0.009,0.162-0.01,0.229
		C324.487,182.114,324.638,182.136,325.284,182.57z"/>
	<path d="M373.492,191.561c0.092,2.32,1.746,4.746,3.957,5.414c1.207,0.365,2.49,0.475,3.74,0.699c0.521,0,1.022-0.04,1.511-0.115
		c1.465-0.228,2.808-0.775,4.16-1.51c0.318-0.172,0.583-0.371,0.824-0.581c1.024-0.893,1.433-2.092,1.79-3.358
		c0.201-0.719-0.611-1.895-1.336-2.094c-0.596-0.166-1.098,0.08-1.5,0.578c-0.311,0.385-0.73,0.682-1.043,1.069
		c-1.436,1.791-3.425,1.981-5.473,1.812c-1.609-0.133-2.454-1.441-2.661-3.111c-0.263-2.135,0.749-3.843,1.589-5.586
		c0.001-0.001,0.001-0.003,0.002-0.004c0.355-0.734,1.219-1.324,1.982-1.736c0.392-0.211,0.69-0.064,0.959,0.179
		c0.001,0.002,0.002,0.004,0.004,0.007c0.058,0.097,0.117,0.186,0.167,0.254c0.123,0.162,0.215,0.272,0.248,0.324
		c0.306,0.461,0.926,0.586,1.386,0.28c0.465-0.304,0.59-0.924,0.284-1.384c-0.033-0.05-0.061-0.083-0.092-0.125
		c0.002-0.102-0.004-0.205,0.017-0.303c0.239-1.117-0.533-1.766-1.256-2.191c-0.761-0.448-1.691-0.976-2.67-0.404
		c-0.707,0.414-1.469,0.713-2.143,1.193c-0.223,0.159-0.437,0.338-0.635,0.548C374.6,184.275,373.336,187.633,373.492,191.561z"/>
	<path d="M357.14,194.446c0.412,0.369,1.027,0.543,1.817,0.552c0.875,0.009,1.749,0.006,2.692,0.003c0.315,0,0.638-0.001,0.97-0.001
		c0.232-0.008,0.467-0.013,0.703-0.017c1.655-0.023,3.411,0.026,5.185-0.435c1.998-0.517,3.607-1.946,3.92-3.819
		c0.045-0.268,0.062-0.545,0.052-0.829c-0.03-0.771-0.364-1.523-0.469-2.295c-0.057-0.426-0.172-0.927-0.329-1.458
		c-0.016-0.052-0.036-0.105-0.052-0.158c-0.48-1.556-1.295-3.314-2.029-4.132c-0.145-0.161-0.294-0.315-0.449-0.461
		c-0.317-0.297-0.663-0.546-1.057-0.702c-0.063-0.061-0.113-0.127-0.18-0.187c-0.411-0.37-1.043-0.336-1.412,0.074
		c-0.326,0.366-0.316,0.9-0.022,1.275c0.008,0.122,0.028,0.243,0.077,0.36c0.054,0.131,0.141,0.257,0.274,0.375
		c0.187,0.164,0.334,0.349,0.456,0.547c0.366,0.592,0.507,1.299,0.803,1.923c0.341,0.72,0.206,1.478,0.324,2.141
		c0.039,0.221,0.106,0.431,0.229,0.626c0.318,0.511,0.494,1.006,0.425,1.451c-0.042,0.268-0.171,0.517-0.41,0.741
		c-0.532,0.498-1.351,0.861-2.078,0.937c-1.397,0.144-2.819,0.058-4.23,0.028c-0.005,0-0.009,0-0.014,0
		c-0.284-0.006-0.707-0.091-0.838-0.28c-0.004-0.005-0.012-0.008-0.015-0.013c-0.001-0.001-0.002-0.001-0.002-0.002
		c-0.812-1.402-2.22-2.51-2.008-4.424c0.111-1.011,0.149-2.061-0.236-3.036c0-0.001,0-0.002,0-0.003
		c0.005-0.494,0.011-0.979,0.011-1.478c0-0.553-0.447-1-1-1c-0.554,0-1,0.447-1,1c0,0.396-0.005,0.801-0.009,1.198
		c-0.274,0.455-0.241,0.969-0.239,1.49c0.004,1.082,0.344,2.326-0.072,3.213c-0.802,1.711-0.331,3.396-0.384,5.076
		C356.519,193.515,356.728,194.078,357.14,194.446z"/>
	<path d="M342.986,185.3c0.187,1.839,0.285,3.688,0.533,5.517c0.129,0.949,0.611,1.86,1.453,2.351
		c0.334,0.195,0.789,0.29,1.221,0.291c0.207,0.001,0.41-0.014,0.59-0.062c0.512-0.137,0.766-0.717,0.742-1.401
		c-0.036-0.968-0.021-1.947-0.571-2.759c-0.644-0.953-0.495-2.107-0.942-3.101c-0.123-0.276,1.145-2.983,1.461-3.364
		c0.589-0.706,1.31-1.19,2.09-1.575c0,0,0.001-0.001,0.002-0.001c0.074-0.024,0.146-0.053,0.221-0.076
		c0.967-0.295,2.002-0.471,3.107-0.627c0.547-0.079,0.926-0.585,0.849-1.132c-0.08-0.548-0.587-0.928-1.134-0.85
		c-0.793,0.114-1.588,0.242-2.383,0.426c-0.001,0-0.002,0-0.002,0c-0.207-0.004-0.358-0.007-0.41-0.009
		c-0.397-0.015-0.772,0.026-1.131,0.108c-1.08,0.247-2.013,0.864-2.955,1.463l0,0c-0.003,0.002-0.011,0.002-0.015,0.004
		c-0.019,0.008-0.039,0.014-0.068,0.016c-0.26,0.014-0.932-0.217-1.29-0.4c-0.205-0.103-0.459-0.105-0.746-0.164
		c-0.139,0.066-0.39,0.14-0.509,0.214c-0.04,0.025-0.065,0.05-0.066,0.075c0.007,1.244-1.075,2.374-0.366,3.703
		C342.878,184.342,342.939,184.84,342.986,185.3z"/>
	<path d="M408.794,175.936c0.288,0.239,0.073,0.88,0.498,1.051c0.071,0.028,0.16,0.044,0.273,0.042
		c0.084-0.001,0.168,0.021,0.252,0.057c0.169,0.072,0.337,0.198,0.511,0.292c0.087,0.047,0.176,0.086,0.266,0.107
		c0.544,0.123,1.121-0.25,1.337-0.761c0.031-0.073,0.055-0.149,0.069-0.227c0-0.165,0.067-0.38-0.01-0.484
		c-0.38-0.509-0.729-1.1-1.238-1.428h-0.001c-0.226-0.145-0.839,0.206-1.216,0.432c-0.354,0.21-0.623,0.551-0.931,0.836
		c-0.001,0-0.001,0-0.001,0C408.685,175.868,408.746,175.896,408.794,175.936z"/>
	<path d="M81.93,173.804c-0.308-0.764-0.393-1.637-0.833-2.331c-0.053-0.083-0.089-0.174-0.154-0.251
		c-0.639-0.764-1.296-1.592-2.122-2.105c-4.305-2.674-8.932-4.498-14.071-4.589c-2.012-0.035-4.023-0.202-6.064,0.38
		c-1.008,0.288-2.189,0.334-3.259,0.613c-0.888,0.231-1.728,0.646-2.589,0.979c0,0,0-0.001-0.001-0.002
		c-0.361-0.925-0.779-1.811-0.867-2.844c-0.011-0.129-0.032-0.247-0.062-0.353c-0.212-0.739-0.901-0.94-2.194-0.801
		c-0.813,0.088-1.257,0.522-1.194,1.472c0.112,1.683-0.011,3.337,0.373,5.064c0.575,2.588,0.471,5.333,0.594,8.014
		c0.068,1.496,0.012,2.997,0.012,4.497c0,2.581-0.025,5.163,0.009,7.746c0.012,0.942,0.226,1.628,0.679,2.139
		c0.393,0.443,0.979,0.752,1.757,0.987c0.12,0.036,0.232,0.075,0.362,0.108c0.045,0.012,0.087,0.037,0.131,0.053
		c0.356,0.132,0.683,0.396,1,0.658c0.08,0.065,0.159,0.132,0.237,0.193c0.379,0.297,0.757,0.544,1.146,0.731
		c0.827,0.397,1.709,0.498,2.79,0.047c1.054-0.438,2.181-0.712,3.267-1.157c3.422-1.402,8.465-3.92,10.931-5.586
		c2.293-1.551,4.371-3.324,6.303-5.301c1.352-1.383,2.373-2.966,3.144-4.702C81.765,176.312,82.419,175.014,81.93,173.804z
		 M53.904,175.232c-0.125-1.251-0.359-2.521-0.406-3.802c-0.033-0.886,0.39-1.265,1.256-1.453c1.771-0.383,3.462-1.043,5.34-1.022
		c1.165,0.013,2.335-0.413,3.558-0.652c2.266,0.454,4.527,0.833,6.749,1.372c2.129,0.516,3.935,1.784,5.813,2.846
		c0.69,0.39,1.062,1.103,1.093,1.863c0.019,0.456-0.085,0.929-0.315,1.36c-0.296,0.552-0.646,1.092-1.059,1.559
		c-3.544,4.006-7.77,7.076-12.683,9.196c-1.696,0.731-3.348,1.551-5.098,2.181c-1.187,0.428-2.11,0.314-3.164-0.162
		c-0.675-0.307-1-0.688-1.016-1.461c-0.012-0.518-0.421-1.024-0.435-1.545c-0.012-0.426,0.435-0.856,0.441-1.292
		C54.019,181.221,54.201,178.201,53.904,175.232z"/>
	<path d="M143.014,192.527c-0.046-0.409-0.054-0.823-0.047-1.238c0.006-0.417,0.027-0.835,0.036-1.25c0-0.001,0-0.002,0-0.003
		c0.032-1.529-0.526-2.946-1.082-4.29c-0.566-1.369-1.323-2.727-2.587-3.669c-0.185-0.138-0.302-0.284-0.334-0.451
		c-0.032-0.168,0.023-0.357,0.185-0.581c0.286-0.396,0.417-0.826,0.419-1.254c0.003-0.429-0.122-0.857-0.349-1.25
		c-0.749-1.294-3.789-2.127-5.271-1.815c-2.416,0.51-3.876,2.265-5.328,3.944c-1.063,1.229-1.134,3.002-1.657,4.53
		c0,0,0,0.001,0.001,0.001c0.8,0.612,0.206,2.038,1.375,2.414c1.03,0.33,2.202,1.033,3.099,0.791
		c1.751-0.475,3.875-0.281,5.092-2.174c0.319-0.496,0.677-0.32,0.971,0.342c0.543,1.227,0.999,2.438,0.994,3.626
		c-0.001,0.17-0.011,0.339-0.032,0.508c0,0.395,0.008,0.737,0.01,1.054c0.002,0.316-0.001,0.605-0.023,0.893
		c-0.023,0.299-0.118,0.629-0.285,0.873c-1.126,1.648-2.671,2.352-4.662,1.966c-0.15-0.028-0.33-0.056-0.432-0.151
		c-0.79-0.744-1.742-0.26-2.604-0.293c-0.324-0.012-0.873,0.514-0.97,0.887c-0.063,0.244-0.104,0.48-0.123,0.71
		c-0.131,1.595,0.798,2.81,2.529,3.353c3.375,1.062,5.295,0.715,7.834-1.114c1.795-1.292,3.176-3.009,3.277-5.324
		C143.066,193.229,143.055,192.884,143.014,192.527z M135.026,182.115c0.076,0.597-0.029,1.039-0.283,1.371
		c-0.228,0.299-0.583,0.504-1.033,0.654c-0.049,0.017-0.094,0.035-0.146,0.051c-0.173,0.051-0.342,0.117-0.514,0.174
		c-0.334,0.111-0.67,0.219-1.001,0.34c-0.903,0.326-1.06,0.343-1.05-0.517c0.001-0.122,0.006-0.263,0.013-0.423
		c0.277-0.812,0.828-1.636,1.484-2.448c0.169-0.21,0.341-0.42,0.522-0.628c0.075-0.086,0.155-0.139,0.233-0.206
		c0.51-0.443,1.072-0.519,1.715-0.483c0.333,0.018,0.571-0.003,0.318,0.51C135.054,180.98,134.96,181.594,135.026,182.115z"/>
	<path d="M167.011,184.916c-1.012-0.175-1.877-0.785-2.863,0.061c-0.178,0.152-0.785,0.115-0.925-0.056
		c-0.461-0.562-1.037-0.372-1.589-0.425c-1.428-0.135-2.396-0.799-3.177-2.102c-1.221-2.034-1.787-4.27-2.411-6.483
		c-0.275-0.978-0.715-1.652-1.604-1.883c-1.108-0.288-2.265-0.032-2.741,1.08c-0.453,1.057-1.546,1.801-1.714,2.996
		c-0.024,0.17-0.029,0.35-0.011,0.541c0,0-0.001,0.001-0.001,0.001c0.007,0.103-0.339,0.334-0.51,0.326
		c-0.162-0.008-0.466-0.297-0.441-0.396c0.275-1.1-0.414-2.019-0.527-3.04c-0.112-1.006-0.89-0.412-1.358-0.519
		c-0.424-0.097-0.631,0.097-0.659,0.401c-0.01,0.101,0,0.213,0.028,0.332c0.009,0.037,0.007,0.072,0.014,0.109
		c0,0.001-0.001,0.002-0.001,0.003c-0.003,0.023-0.016,0.042-0.018,0.064l-0.009,0.253c0,0.208,0.018,0.4,0.041,0.578l0,0
		c-0.022,0.146-0.052,0.291-0.089,0.436c-0.019,0.072-0.042,0.144-0.064,0.216c-0.208,0.706-0.511,1.406-0.509,2.166
		c0.209,0.748,0.514,1.486,0.605,2.244c0.105,0.902-0.225,1.92,0.076,2.721c0.622,1.652,1.015,3.461,2.449,4.725
		c0.94,0.829,1.784,1.016,2.563,0.42c0.516-0.395,0.82-0.771,0.922-1.201c0.103-0.432,0.003-0.916-0.29-1.527
		c-0.235-0.488-0.519-0.979-0.886-1.371c-0.226-0.24-0.294-0.428-0.268-0.614c0.027-0.189,0.151-0.379,0.311-0.622
		c0.631-0.963,1.11-2.025,1.644-3.053c0.123-0.234,0.214-0.488,0.319-0.732c0.228,0.237,0.651,0.477,0.652,0.715
		c0.005,1.361,0.899,2.305,1.466,3.396c0.95,1.827,2.123,2.56,4.04,3.372c1.613,0.688,3.203,0.373,4.801,0.43
		c1.134,0.039,2.279-0.016,3.178,0.76c0.715,0.616,1.232,0.087,1.34-0.344c0-0.001,0-0.001,0-0.002
		c0.181-0.734,0.171-1.596-0.032-2.324C168.54,185.76,168.138,185.113,167.011,184.916z"/>
	<path d="M94.621,184.027c-0.273,0.002-0.538,0.283-0.815,0.418c-0.967,0.475-1.911,1.014-2.916,1.385
		c-0.705,0.261-1.309,0.977-2.193,0.62c0-0.002,0.001-0.003,0.001-0.005c0.159-0.829,0.604-1.466,1.175-2.098
		c1.652-1.828,2.563-4.059,3.113-6.429c0.062-0.266,0.094-0.485,0.091-0.672c-0.008-0.56-0.327-0.836-1.087-1.245
		c-1.2-0.644-4.293-0.651-5.624-0.132c-2.274,0.886-3.765,2.517-4.887,4.628c-0.646,1.215-0.635,2.627-1.124,3.773
		c-0.251,0.591-0.349,1.199-0.318,1.799c0.131,2.604,2.669,5.027,5.465,4.932c0.332-0.012,0.665-0.002,1.213-0.002
		c1.247,0.15,2.727,0.051,4.041-0.549c1.89-0.869,3.706-1.913,5.493-2.984c0.522-0.313,0.816-1.416,0.771-2.206
		c-0.015-0.263-0.068-0.491-0.162-0.645C96.309,183.727,95.407,184.018,94.621,184.027z M89.292,178.967
		c0.033-0.002,0.061,0.001,0.091,0.001c0.092,0,0.177,0.011,0.234,0.056c0.196,0.156,0.422,0.631,0.346,0.718
		c-1.479,1.707-2.992,3.383-4.521,5.045c-0.129,0.142-0.436,0.235-0.613,0.187c-0.007-0.002-0.016-0.001-0.022-0.003
		c-0.149-0.053-0.303-0.369-0.291-0.561c0.073-1.262,0.309-2.477,1.251-3.426c0.406-0.409,0.809-0.821,1.223-1.221
		c0.79-0.763,0.794-0.76,1.906-0.763C89.018,179,89.161,178.976,89.292,178.967z"/>
	<path d="M114.957,185.65c0.905-0.612,1.79-1.981,1.48-3.277c0-0.001,0-0.002,0-0.003c-0.291-1.209-1.153-2.257-2.48-2.648
		c-0.528-0.156-1.101-0.214-1.655-0.217c-3.326-0.019-6.653-0.007-9.98-0.015c-0.231,0-0.462-0.076-0.693-0.117
		c-0.001,0-0.002-0.001-0.003-0.001c0.151-0.235,0.252-0.537,0.462-0.695c1.462-1.104,3.062-1.97,4.771-2.628
		c0.005,0,0.01,0,0.015-0.001c0.3-0.033,0.604-0.057,0.919-0.057c0.135,0,0.271,0.003,0.409,0.01
		c0.552,0.025,1.02-0.401,1.045-0.953c0.025-0.552-0.398-1.021-0.95-1.046c-0.168-0.008-0.335-0.012-0.501-0.012
		c-0.065,0-0.127,0.011-0.192,0.012c-0.179-0.073-0.457,0.013-0.685-0.007c-2.68-0.238-4.847,1.12-6.99,2.387
		c-1.038,0.613-2.19,1.184-2.676,2.563c-0.161,0.458-0.231,0.898-0.216,1.305c0.044,1.213,0.848,2.122,2.278,2.24
		c0.579,0.049,1.166,0.043,1.746,0.002c2.591-0.182,5.225,0.445,7.787-0.467c0.517-0.185,1.45-0.265,1.679,0.02
		c0.555,0.689,1.886-0.02,1.904,0.973c0,0,0,0,0,0.001c0.011,0.691-1.031,0.706-1.628,0.989c-0.975,0.463-1.871,1.246-2.887,1.438
		c-2.171,0.414-4.315,1.08-6.562,1.059c-0.384-0.003-0.646-0.018-0.892,0.514c-0.046-0.004-0.089-0.01-0.135-0.014
		c-0.551-0.043-1.032,0.369-1.074,0.92s0.369,1.031,0.92,1.074c0.08,0.006,0.165,0.017,0.247,0.024
		c0.001,0.004,0.002,0.007,0.003,0.011c0.289,0.555,0.855,0.936,1.636,0.966c0.498,0.019,0.998,0.003,1.71,0.003
		c0.207,0.02,0.414,0.025,0.622,0.021c1.457-0.03,2.952-0.586,4.504-0.96C111.292,188.491,113.057,186.938,114.957,185.65z"/>
	<path d="M124.5,188.872c-0.121-0.302-0.33-1.152-0.781-1.845c-0.353-0.547-0.611-1.012-0.777-1.687
		c-0.599-2.432-1.359-4.822-2.076-7.225c-0.001-0.009-0.003-0.019-0.005-0.028c-0.05-0.309-0.091-0.616-0.115-0.921
		c-0.046-0.551-0.53-0.959-1.08-0.913s-0.959,0.529-0.913,1.079c0.036,0.395,0.091,0.78,0.155,1.161
		c-0.063,0.742-0.083,1.471,0.176,2.077c0.522,1.227,0.169,2.408,0.444,3.555c0.282,1.172,0.674,2.32,0.454,3.527
		c-0.185,1.02,0.309,1.873,0.549,2.771c0.332,1.247,1.425,1.764,2.865,1.576c0.291-0.038,0.634-0.49,0.86-1.042
		c0.135-0.33,0.228-0.696,0.243-1.03C124.506,189.764,124.5,189.598,124.5,188.872z"/>
	<path d="M120.483,170.294L120.483,170.294c0.001-0.043-0.006-0.093-0.011-0.141c-0.003-0.031-0.001-0.06-0.007-0.092
		c-0.006-0.04-0.02-0.078-0.029-0.118c-0.01-0.042-0.018-0.086-0.031-0.126c-0.054-0.157-0.133-0.293-0.234-0.353
		c-0.652-0.382-1.345-0.795-2.071-0.927c-1.017-0.185-2.136,1.006-2.1,2.046v0c0.027,0.777,0.569,1.478,1.275,1.771
		c0.235,0.098,0.489,0.15,0.749,0.146c0.161-0.003,0.32-0.021,0.475-0.053C119.583,172.223,120.463,171.328,120.483,170.294z"/>
	<path d="M408.929,184.451c0.026,0.158,0.045,0.323,0.059,0.494c-0.012,0.048-0.009,0.106-0.035,0.144
		c-0.271,0.372-0.384,0.756-0.433,1.149c-0.009,0.066-0.022,0.13-0.027,0.196c-0.055,0.775,0.109,1.601-0.096,2.503
		c0.18,1.502,0.246,3.295,0.668,5c0.191,0.772,1.08,1.379,1.681,2.035c0.039,0.043,0.131,0.066,0.226,0.068
		c0.096,0.003,0.194-0.015,0.247-0.052c0.714-0.503,1.542-0.933,2.062-1.597c0.415-0.533,0.239-1.263-0.088-2.017
		c-0.978-2.228-1.444-4.608-1.729-7.039c-0.123-1.052-0.6-2.069-0.984-3.08c-0.06-0.159-0.186-0.314-0.334-0.445
		c0-0.002-0.002-0.003-0.002-0.004c-0.24-0.479-0.809-0.692-1.301-0.472c-0.504,0.227-0.73,0.82-0.504,1.324
		C408.691,183.443,408.845,183.954,408.929,184.451z"/>
	<path d="M389.037,180.715C389.038,180.715,389.038,180.715,389.037,180.715c0.222,0.139,0.477,0.237,0.691,0.251
		c1.324,0.089,2.66,0.044,3.99,0.027c0.455-0.007,0.758,0.021,0.807,0.616c0.037,0.441,0.429,0.856,0.453,1.296
		c0.09,1.522,0.096,3.018,0.457,4.549c0.472,1.991,1.517,5.342,2.663,6.896c0.498,0.672,2.238,0.981,2.859,0.399l0,0
		c0.443-0.416,0.797-0.994,0.998-1.567c0.09-0.256-0.262-0.697-0.464-1.021c-0.107-0.171-0.227-0.334-0.345-0.499
		c-0.085-0.119-0.164-0.242-0.249-0.362c-0.118-0.164-0.237-0.328-0.345-0.5c-0.368-0.589-0.857-1.164-1.027-1.812
		c-0.609-2.346-1.397-4.674-1.459-7.109c-0.011-0.396-0.61-0.794-0.498-1.19c0.038-0.133,0.154-0.265,0.399-0.397
		c0.54-0.293,1.104-0.553,1.676-0.773c0.219-0.084,0.517,0.052,0.739-0.025c1.099-0.38,2.3-0.323,3.354-0.948
		c0.133-0.078,0.25-0.151,0.36-0.221c0.853-0.542,1.062-0.881,0.899-1.724c-0.148-0.754-1.07-1.629-1.881-1.57
		c-0.941,0.068-1.875-0.266-2.852,0.36c-0.736,0.473-1.801,0.455-2.729,0.604c-0.61,0.098-0.91-0.004-1.107-0.826
		c-0.258-1.074-0.466-2.246-1.183-3.15c-0.095-0.344-0.189-0.688-0.284-1.031c-0.146-0.533-0.697-0.845-1.229-0.698
		c-0.532,0.146-0.846,0.696-0.698,1.229c0.22,0.795,0.438,1.591,0.658,2.387c0,0,0,0,0,0.001c0.056,0.565,0.113,1.131,0.167,1.696
		c0.148,0.927,0.104,1.31-0.432,1.604c-0.179,0.098-0.411,0.187-0.709,0.282c-0.74,0.238-1.523,0.489-2.283,0.475
		c-0.413-0.008-0.717,0.117-0.964,0.305c-0.023,0.018-0.041,0.041-0.062,0.06c-0.171,0.144-0.316,0.312-0.452,0.489
		c-0.444,0.14-0.752,0.559-0.703,1.041C388.301,180.294,388.629,180.625,389.037,180.715z"/>
</g>
</svg>
